<?xml version="1.0" encoding="UTF-8"?>
<svg width="375px" height="375px" viewBox="0 0 375 375" version="1.1" xmlns="http://www.w3.org/2000/svg" xmlns:xlink="http://www.w3.org/1999/xlink">
    <!-- Generator: Sketch 52.6 (67491) - http://www.bohemiancoding.com/sketch -->
    <title>Map dark</title>
    <desc>Created with Sketch.</desc>
    <defs>
        <polygon id="path-1" points="0.0495594714 0.231242264 374.330534 0.231242264 374.330534 219.98716 0.0495594714 219.98716"></polygon>
    </defs>
    <g id="Welcome" stroke="none" stroke-width="1" fill="none" fill-rule="evenodd">
        <g id="1" transform="translate(0.000000, -175.000000)">
            <g id="Map-dark" transform="translate(0.000000, 175.000000)">
                <g id="Group-3" stroke-width="1" transform="translate(0.000000, 155.012376)">
                    <mask id="mask-2" fill="white">
                        <use xlink:href="#path-1"></use>
                    </mask>
                    <g id="Clip-2"></g>
                    <path d="M54.8193833,187.804455 C127.91217,230.714109 246.419604,230.715037 319.511564,187.805384 C392.603524,144.894802 392.603524,75.323948 319.511564,32.4142946 C246.418778,-10.4962871 127.911344,-10.4962871 54.8193833,32.4133663 C-18.2734031,75.3230198 -18.2734031,144.894802 54.8193833,187.804455" id="Fill-1" fill="#F3F2EF" mask="url(#mask-2)"></path>
                </g>
                <path d="M153.612059,344.280631 L52.8378304,278.400371 C51.0338656,277.220606 51.0338656,275.308478 52.8378304,274.127785 L233.326817,156.13552 C235.132434,154.955755 238.058921,154.955755 239.862885,156.13552 L340.636289,222.01578 C342.441905,223.195545 342.441905,225.10953 340.636289,226.288366 L160.148128,344.280631 C158.343337,345.460396 155.41685,345.460396 153.612059,344.280631" id="Fill-4" fill="#DFDFDA"></path>
                <path d="M42.8036894,315.983911 C54.5327643,322.267946 73.5495595,322.267946 85.2786344,315.983911 C97.0085352,309.703589 97.0085352,299.517327 85.2786344,293.23422 C73.5495595,286.95297 54.5327643,286.95297 42.8036894,293.23422 C31.0746145,299.517327 31.0746145,309.703589 42.8036894,315.983911" id="Fill-5" fill="#DFDFDA"></path>
                <path d="M299.746421,189.201423 C301.299284,183.397277 304.281112,165.884592 301.383535,153.326733 C299.155011,143.665842 293.64978,135.665532 287.307819,133.462871 C280.965859,131.26021 277.476872,140.201733 281.499449,146.235149 C291.77065,161.638923 296.129405,174.535582 293.82489,185.418007 L299.746421,189.201423" id="Fill-6" fill="#00A497"></path>
                <path d="M301.172081,182.271349 L299.116189,180.9375 C299.340859,178.641089 299.443282,176.417079 299.443282,174.270111 C299.443282,164.23979 297.199064,155.891399 294.59967,149.697401 C293.299559,146.600866 291.910242,144.042698 290.665474,142.077661 C289.419053,140.112624 288.323789,138.746287 287.582874,138.012067 C287.504405,137.934097 287.406938,137.89604 287.310297,137.89604 C287.195485,137.89604 287.081498,137.949876 286.999725,138.053837 C286.849394,138.245978 286.865914,138.539295 287.036894,138.709158 C287.703469,139.367265 288.777258,140.697401 289.992291,142.616027 C293.644824,148.379332 298.618943,159.463181 298.617291,174.270111 C298.617291,176.256498 298.528084,178.311572 298.333976,180.429765 L294.382434,177.866027 C293.901707,168.685025 289.490088,158.218441 281.499449,146.235149 C280.315804,144.459468 279.782214,142.43224 279.780562,140.511757 C279.777258,136.595606 281.98348,133.121287 285.393998,133.121287 C285.996145,133.121287 286.636289,133.229889 287.307819,133.462871 C293.64978,135.665532 299.155011,143.665842 301.383535,153.326733 C302.263216,157.14078 302.601046,161.41151 302.601046,165.672958 C302.601872,171.655322 301.936123,177.619121 301.172081,182.271349" id="Fill-7" fill="#3F0099"></path>
                <path d="M287.036894,138.709158 C287.703469,139.367265 288.777258,140.697401 289.992291,142.616027 C293.644824,148.379332 298.618943,159.463181 298.617291,174.270111 C298.617291,178.480507 298.215859,182.993502 297.267621,187.774752 C297.218062,188.024443 297.357654,188.273205 297.580672,188.328899 C297.803689,188.384592 298.024229,188.226795 298.073789,187.976176 C299.035242,183.128094 299.443282,178.546411 299.443282,174.270111 C299.443282,164.23979 297.199064,155.891399 294.59967,149.697401 C293.299559,146.600866 291.910242,144.042698 290.665474,142.077661 C289.419053,140.112624 288.323789,138.746287 287.582874,138.012067 C287.411894,137.843131 287.150881,137.861696 286.999725,138.053837 C286.849394,138.245978 286.865914,138.539295 287.036894,138.709158" id="Fill-8" fill="#FDFCFB"></path>
                <path d="M322.215033,201.198639 C325.488436,200.757735 329.634086,199.59375 331.623073,195.09375 C333.612059,190.59375 327.732654,186.778775 327.844163,182.993502 C327.957324,179.207302 331.33315,177.539295 334.918778,176.007735 C338.505231,174.476176 342.03304,169.046101 339.058645,165.188428 C336.085903,161.329827 332.974394,156.466894 336.085903,151.682859 C339.196586,146.899752 344.658866,142.268874 339.618667,139.401609 C333.296531,135.805693 326.840584,144.175433 322.215033,147.17729 C317.589482,150.178218 311.831498,145.59375 307.603249,150.568069 C303.375,155.54146 311.364813,161.934097 306.349394,167.118193 C301.332324,172.301361 294.455121,173.371597 297.428689,184.714418 L322.215033,201.198639" id="Fill-9" fill="#6700F9"></path>
                <path d="M336.265143,141.38521 C335.647302,141.719369 334.846916,142.374691 333.865639,143.325186 C330.446035,146.647277 324.922632,153.594059 319.884912,162.371287 C314.851322,171.146658 310.309196,181.744121 308.914923,192.363861 C308.881057,192.618193 309.03717,192.85396 309.262665,192.891089 C309.488987,192.928218 309.698789,192.752785 309.731828,192.499381 C311.290474,180.590347 316.931993,168.574567 322.742015,159.259901 C325.6462,154.602104 328.591685,150.617265 331.080396,147.65625 C332.324339,146.175743 333.455121,144.950495 334.405011,144.027847 C335.353249,143.105198 336.132159,142.483292 336.621971,142.222463 C336.827643,142.112005 336.914372,141.834468 336.816079,141.603342 C336.717786,141.372215 336.471641,141.274752 336.265969,141.38521" id="Fill-10" fill="#FDFCFB"></path>
                <path d="M313.064703,153.695235 C313.065529,153.696163 313.138216,153.783416 313.272026,153.952351 C313.742015,154.543626 314.939703,156.097463 316.139042,158.013304 C317.338381,159.92729 318.534416,162.212562 319.008535,164.207302 C319.068007,164.455136 319.294328,164.601795 319.514868,164.534963 C319.735407,164.468131 319.865914,164.2138 319.806443,163.966894 C319.205947,161.467203 317.672081,158.768874 316.29185,156.664604 C314.909967,154.564047 313.676762,153.072401 313.670154,153.064047 C313.514868,152.875619 313.253855,152.865408 313.086178,153.039913 C312.919328,153.214418 312.909416,153.507735 313.064703,153.695235" id="Fill-11" fill="#FDFCFB"></path>
                <path d="M333.740088,168.354579 C332.335903,168.136448 330.286619,167.95823 328.019273,167.95823 C325.783315,167.95823 323.338381,168.130879 321.095815,168.617265 C318.854075,169.105507 316.810573,169.898205 315.375,171.198639 C315.198238,171.360149 315.170154,171.652537 315.313877,171.852104 C315.457599,172.050743 315.717786,172.081374 315.894548,171.920792 C317.150881,170.773515 319.0837,169.996597 321.252753,169.528775 C323.42098,169.058168 325.822137,168.886448 328.019273,168.886448 C330.247797,168.886448 332.268998,169.062809 333.626927,169.274443 C333.852423,169.309715 334.061399,169.132426 334.092786,168.878094 C334.124174,168.624691 333.96641,168.389851 333.740088,168.354579" id="Fill-12" fill="#FDFCFB"></path>
                <polyline id="Fill-13" fill="#393468" points="193.32489 307.750619 154.813877 319.409963 63.8086454 260.366955 102.319659 248.707611 193.32489 307.750619"></polyline>
                <polyline id="Fill-14" fill="#393468" points="199.597467 311.821782 152.527533 326.076423 48.9688877 258.891089 96.0388216 244.636448 102.319659 248.707611 63.8086454 260.366955 154.813877 319.409963 193.32489 307.750619 199.597467 311.821782"></polyline>
                <polyline id="Fill-15" fill="#393468" points="237.258535 262.962252 193.32489 307.750619 102.319659 248.707611 146.25413 203.920173 237.258535 262.962252"></polyline>
                <polyline id="Fill-16" fill="#393468" points="243.531938 267.034344 199.597467 311.821782 193.32489 307.750619 237.258535 262.962252 243.531938 267.034344"></polyline>
                <polyline id="Fill-17" fill="#393468" points="146.25413 203.920173 102.319659 248.707611 96.0388216 244.636448 139.973293 199.848082 146.25413 203.920173"></polyline>
                <polyline id="Fill-18" fill="#393468" points="326.440804 206.810644 284.328469 248.707611 193.32489 189.664604 235.434747 147.768564 326.440804 206.810644"></polyline>
                <polyline id="Fill-19" fill="#393468" points="337.672632 205.951114 290.601872 252.778775 284.328469 248.707611 326.440804 206.810644 235.434747 147.768564 193.32489 189.664604 187.043227 185.593441 234.113987 138.76578 337.672632 205.951114"></polyline>
                <polyline id="Fill-20" fill="#393468" points="284.328469 248.707611 237.258535 262.962252 146.25413 203.920173 193.32489 189.664604 284.328469 248.707611"></polyline>
                <polyline id="Fill-21" fill="#393468" points="193.32489 189.664604 146.25413 203.920173 139.973293 199.848082 187.043227 185.593441 193.32489 189.664604"></polyline>
                <polyline id="Fill-22" fill="#393468" points="290.601872 252.778775 243.531938 267.034344 237.258535 262.962252 284.328469 248.707611 290.601872 252.778775"></polyline>
                <polyline id="Fill-23" fill="#1A282B" points="235.438877 147.766708 227.842236 155.325186 230.97935 177.449257 268.7288 169.365408 235.438877 147.766708"></polyline>
                <path d="M298.311674,188.562809 C294.557544,195.716584 288.870595,200.994431 282.992841,204.710087 L266.391244,175.245668 L274.91217,173.379022 L298.311674,188.562809" id="Fill-24" fill="#1A282B"></path>
                <path d="M277.599945,207.696163 C271.51239,210.621906 265.773403,211.959468 262.358756,212.063428 C260.326817,212.124691 258.410518,212.037438 256.602423,211.811881 L250.553689,178.718131 L260.217786,176.599938 L277.599945,207.696163" id="Fill-25" fill="#1A282B"></path>
                <path d="M250.406663,210.535582 C242.504405,208.191832 237.375,203.720606 234.430341,201.549505 L231.742566,182.841275 L245.09967,179.915532 L250.406663,210.535582" id="Fill-26" fill="#1A282B"></path>
                <path d="M302.422632,191.225866 C293.174835,208.57797 272.257434,217.225248 262.360407,216.674814 C262.360407,216.674814 260.543227,216.990408 262.361233,218.168317 C264.177588,219.348082 281.188877,230.38552 281.188877,230.38552 L309.101597,224.0625 L326.443282,206.810644 L302.422632,191.225866" id="Fill-27" fill="#1A282B"></path>
                <polyline id="Fill-28" fill="#1A282B" points="303.155286 229.978032 286.358756 233.740099 294.237059 238.851795 303.155286 229.978032"></polyline>
                <polyline id="Fill-29" fill="#1A282B" points="227.84141 199.848082 218.424284 205.951114 193.32489 189.664604 223.052313 160.087871 227.84141 199.848082"></polyline>
                <path d="M289.281112,243.776918 L284.328469,248.707611 L240.394824,220.206683 C239.838932,215.769802 241.322412,212.663057 243.531938,214.094369 C245.740639,215.534963 289.281112,243.776918 289.281112,243.776918" id="Fill-30" fill="#1A282B"></path>
                <path d="M234.113987,216.13552 L223.693282,209.372525 L230.136013,205.404394 C232.298458,206.810644 237.049559,210.023205 237.049559,210.023205 C237.049559,210.023205 233.650606,212.896968 234.113987,216.13552" id="Fill-31" fill="#1A282B"></path>
                <polyline id="Fill-32" fill-opacity="0.377292799" fill="#9B60F0" points="189.446035 214.728342 171.353524 220.206683 146.25413 203.920173 166.169604 197.886757 189.446035 214.728342"></polyline>
                <polyline id="Fill-33" fill-opacity="0.377292799" fill="#9B60F0" points="182.810022 192.851176 179.048458 200.456064 172.751927 195.898515 182.810022 192.851176"></polyline>
                <polyline id="Fill-34" fill-opacity="0.377292799" fill="#9B60F0" points="218.424284 205.951114 196.020099 212.731745 183.89207 203.9638 183.89207 203.954517 190.51239 190.51578 193.32489 189.664604 218.424284 205.951114"></polyline>
                <path d="M284.328469,248.707611 L272.563051,252.275681 L272.556443,252.275681 C272.139317,252.214418 260.689427,250.590965 257.491189,249.82797 C254.238436,249.055693 252.168502,248.204517 250.468612,244.636448 C248.761289,241.06745 240.394824,220.206683 240.394824,220.206683 L284.328469,248.707611" id="Fill-35" fill-opacity="0.377292799" fill="#9B60F0"></path>
                <polyline id="Fill-36" fill-opacity="0.377292799" fill="#9B60F0" points="246.668227 249.375928 200.717511 216.13552 223.693282 209.372525 234.113987 216.13552 246.668227 249.375928"></polyline>
                <polyline id="Fill-37" fill-opacity="0.377292799" fill="#9B60F0" points="233.603524 246.675743 218.424284 250.747834 176.205396 223.357983 176.22109 223.341275 194.088932 218.080136 233.603524 246.675743"></polyline>
                <polyline id="Fill-38" fill-opacity="0.377292799" fill="#9B60F0" points="250.553689 258.934715 237.258535 262.962252 224.705121 254.819926 239.413546 250.869431 250.553689 258.934715"></polyline>
                <polyline id="Fill-39" fill-opacity="0.377292799" fill="#9B60F0" points="262.358756 255.362005 251.506883 253.714418 256.424835 257.158106 262.358756 255.362005"></polyline>
                <polyline id="Fill-40" fill="#1A282B" points="237.258535 262.962252 219.280837 281.280631 200.717511 279.249691 204.57489 262.564047 224.705121 254.819926 237.258535 262.962252"></polyline>
                <polyline id="Fill-41" fill="#1A282B" points="152.82076 238.07302 125.905837 264.012995 102.319659 248.707611 105.185848 245.791151 116.387941 246.121597 135.454295 234.053837 152.82076 238.07302"></polyline>
                <polyline id="Fill-42" fill="#1A282B" points="218.424284 250.747834 202.733756 256.850866 166.255507 233.176671 176.205396 223.357983 218.424284 250.747834"></polyline>
                <polyline id="Fill-43" fill="#1A282B" points="171.353524 220.206683 157.494218 233.56745 145.164648 230.381807 146.25413 203.920173 171.353524 220.206683"></polyline>
                <polyline id="Fill-44" fill="#1A282B" points="140.259086 210.032488 139.485958 229.261448 133.70815 228.349938 131.297907 229.904703 128.802588 221.70854 140.259086 210.032488"></polyline>
                <polyline id="Fill-45" fill="#1A282B" points="125.619218 233.593441 115.908866 239.887686 110.77946 240.087252 123.6038 227.013304 125.619218 233.593441"></polyline>
                <polyline id="Fill-46" fill="#1A282B" points="196.077919 260.676052 165.080121 273.141089 141.356002 257.74474 161.272302 238.090656 196.077919 260.676052"></polyline>
                <polyline id="Fill-47" fill="#1A282B" points="197.596916 265.740408 187.739537 304.130569 167.622522 291.081683 167.622522 291.073329 165.080947 278.841275 197.596916 265.740408"></polyline>
                <polyline id="Fill-48" fill="#1A282B" points="213.850771 286.819307 194.352423 306.699876 199.29598 285.361077 213.850771 286.819307"></polyline>
                <polyline id="Fill-49" fill="#1A282B" points="162.461729 287.392017 162.360958 287.662129 151.32902 280.507426 160.344714 279.249691 162.461729 287.392017"></polyline>
                <polyline id="Fill-50" fill="#1A282B" points="158.019548 274.726485 145.713932 276.862314 145.705672 276.862314 131.397852 267.581064 137.184747 261.867884 158.019548 274.726485"></polyline>
                <polyline id="Fill-51" fill="#1A003E" points="230.97935 177.449257 227.842236 155.325186 235.438877 147.766708 268.7288 169.365408 268.72467 169.366337 230.97935 177.449257"></polyline>
                <path d="M282.992841,204.710087 L266.391244,175.245668 L274.91217,173.379022 L298.311674,188.562809 C294.557544,195.716584 288.870595,200.994431 282.992841,204.710087" id="Fill-52" fill="#1A003E"></path>
                <path d="M261.113161,212.081993 C259.538822,212.081993 258.036344,211.991027 256.602423,211.811881 L250.553689,178.718131 L260.217786,176.599938 L277.599945,207.696163 C271.51239,210.621906 265.773403,211.959468 262.358756,212.063428 C261.938326,212.076423 261.523678,212.081993 261.113161,212.081993" id="Fill-53" fill="#1A003E"></path>
                <path d="M250.406663,210.535582 C242.504405,208.191832 237.375,203.720606 234.430341,201.549505 L231.742566,182.841275 L245.09967,179.915532 L250.406663,210.535582" id="Fill-54" fill="#1A003E"></path>
                <path d="M281.188877,230.38552 C281.188877,230.38552 264.177588,219.348082 262.361233,218.168317 C261.75413,217.774752 261.551762,217.477723 261.552588,217.255879 C261.55424,216.814975 262.360407,216.674814 262.360407,216.674814 C262.656938,216.691522 262.962555,216.699876 263.278084,216.699876 C273.499725,216.698948 293.452368,208.058168 302.422632,191.225866 L326.443282,206.810644 L309.101597,224.0625 L309.099945,224.0625 L281.188877,230.38552" id="Fill-55" fill="#1A003E"></path>
                <polyline id="Fill-56" fill="#1A003E" points="294.237059 238.851795 294.236233 238.850866 286.358756 233.740099 303.155286 229.978032 294.237059 238.851795"></polyline>
                <path d="M218.424284,205.951114 L193.32489,189.664604 L199.363711,183.65625 C200.482104,184.794245 201.188326,185.436572 201.188326,185.436572 L207.759912,189.613552 C208.155562,189.898515 208.601597,190.034963 209.042676,190.034963 C209.911619,190.034963 210.764868,189.50495 211.188601,188.530322 C213.501377,183.211634 218.263216,171.965347 222.052037,161.082921 L223.052313,160.087871 L227.84141,199.848082 L218.425936,205.950186 L218.424284,205.951114" id="Fill-57" fill="#1A003E"></path>
                <path d="M284.328469,248.707611 L240.394824,220.206683 C240.315529,219.571782 240.277533,218.964728 240.277533,218.392946 C240.278359,215.642636 241.158866,213.741646 242.487885,213.741646 C242.811674,213.741646 243.161068,213.85396 243.531938,214.094369 C245.740639,215.534963 289.281112,243.776918 289.281112,243.776918 L284.328469,248.707611" id="Fill-58" fill="#1A003E"></path>
                <path d="M234.113987,216.13552 L223.693282,209.372525 L230.136013,205.404394 C232.298458,206.810644 237.049559,210.023205 237.049559,210.023205 C237.049559,210.023205 234.074339,212.537748 234.071035,215.514542 C234.070209,215.719678 234.084251,215.926671 234.113987,216.13552" id="Fill-59" fill="#1A003E"></path>
                <polyline id="Fill-60" fill="#1A003E" points="219.280837 281.280631 200.717511 279.249691 204.57489 262.564047 224.705121 254.819926 237.258535 262.962252 219.280837 281.280631"></polyline>
                <polyline id="Fill-61" fill="#1A003E" points="125.905837 264.012995 102.319659 248.707611 105.185848 245.791151 116.387941 246.121597 135.454295 234.053837 152.82076 238.07302 125.907489 264.011139 125.905837 264.012995"></polyline>
                <polyline id="Fill-62" fill="#1A003E" points="202.733756 256.850866 166.255507 233.176671 176.205396 223.357983 218.424284 250.747834 202.733756 256.850866"></polyline>
                <polyline id="Fill-63" fill="#1A003E" points="157.494218 233.56745 145.164648 230.381807 146.25413 203.920173 171.353524 220.206683 157.494218 233.56745"></polyline>
                <polyline id="Fill-64" fill="#1A003E" points="131.297907 229.904703 128.803414 221.709468 128.802588 221.70854 140.259086 210.032488 139.485958 229.261448 133.70815 228.349938 131.297907 229.904703"></polyline>
                <polyline id="Fill-65" fill="#1A003E" points="110.77946 240.087252 123.6038 227.013304 125.619218 233.593441 115.908866 239.887686 110.77946 240.087252"></polyline>
                <polyline id="Fill-66" fill="#1A003E" points="165.080121 273.141089 141.356002 257.74474 161.272302 238.090656 196.077919 260.676052 165.080121 273.141089"></polyline>
                <polyline id="Fill-67" fill="#1A003E" points="187.739537 304.130569 167.622522 291.081683 167.622522 291.073329 165.080947 278.841275 197.596916 265.740408 187.740363 304.127785 187.739537 304.130569"></polyline>
                <polyline id="Fill-68" fill="#1A003E" points="194.352423 306.699876 199.29598 285.361077 213.850771 286.819307 194.352423 306.699876"></polyline>
                <polyline id="Fill-69" fill="#151F22" points="162.360958 287.662129 151.32902 280.507426 160.344714 279.249691 162.461729 287.392017 162.360958 287.662129"></polyline>
                <polyline id="Fill-70" fill="#1A003E" points="145.713932 276.862314 145.705672 276.862314 131.397852 267.581064 137.184747 261.867884 158.019548 274.726485 145.714758 276.861386 145.713932 276.862314"></polyline>
                <polyline id="Fill-71" fill="#5D449B" points="101.02946 267.312809 79.0052313 270.228342 78.9969714 270.228342 63.8086454 260.366955 95.1814427 250.869431 101.02946 267.312809"></polyline>
                <polyline id="Fill-72" fill="#5D449B" points="125.905837 264.012995 105.348568 266.739171 99.18337 249.654394 102.319659 248.707611 125.905837 264.012995"></polyline>
                <polyline id="Fill-73" fill="#5D449B" points="145.705672 276.862314 117.291575 295.066522 117.284141 295.066522 85.0696586 274.162129 131.397852 267.581064 145.705672 276.862314"></polyline>
                <polyline id="Fill-74" fill="#5D449B" points="187.739537 304.130569 181.426487 311.353032 158.019548 318.437191 167.622522 291.081683 187.739537 304.130569"></polyline>
                <polyline id="Fill-75" fill="#5D449B" points="162.360958 287.662129 151.599945 317.326114 122.814978 298.652228 151.32902 280.507426 162.360958 287.662129"></polyline>
                <path d="M202.713106,152.5888 C197.819934,155.764233 193.852698,153.190285 193.851872,146.841275 C196.486784,146.375309 203.109581,133.669864 202.713106,129.594988 C207.606278,126.420483 211.572687,128.994431 211.572687,135.343441 C211.572687,141.693379 207.606278,149.415223 202.713106,152.5888 M222.054515,121.552908 L215.322687,117.207921 L215.321861,117.209777 C212.10793,114.793626 207.646751,114.896658 202.713106,118.098082 C192.925936,124.44802 184.992291,140.569307 184.992291,154.107364 L184.992291,157.188119 C184.992291,170.726176 201.188326,185.436572 201.188326,185.436572 L207.811123,189.64604 C207.811123,189.64604 203.83315,184.549196 204.286619,183.503094 C208.623899,173.498762 220.433095,145.245668 220.433095,134.194307 L220.433095,131.112624 C220.433095,128.642636 220.1663,126.43255 219.674835,124.502785 L220.433921,124.995668 L222.054515,121.552908" id="Fill-76" fill="#00A497"></path>
                <path d="M207.759912,189.613552 L201.188326,185.436572 C201.188326,185.436572 184.992291,170.726176 184.992291,157.188119 L184.992291,154.107364 C184.992291,140.569307 192.925936,124.44802 202.713106,118.098082 C205.398403,116.355817 207.943282,115.530631 210.223844,115.530631 C212.133535,115.530631 213.857379,116.108911 215.321861,117.209777 L215.322687,117.207921 L221.706773,121.329208 C220.405011,120.539295 218.927313,120.128094 217.317456,120.128094 C215.035242,120.128094 212.488711,120.95328 209.800936,122.696473 C202.790749,127.24474 196.732104,136.805384 193.857654,146.840347 C193.856002,146.840347 193.85435,146.840347 193.851872,146.841275 C193.851872,146.846844 193.851872,146.853342 193.851872,146.858911 C192.71696,150.82797 192.080121,154.870359 192.080121,158.705755 L192.080121,161.787438 C192.080121,172.212252 202.588381,184.306931 207.42043,189.318379 C207.527808,189.430693 207.641795,189.528156 207.759912,189.613552 M205.844438,158.547958 C203.401156,158.547958 201.602148,156.710087 201.089207,153.450186 C201.615363,153.234839 202.15804,152.948948 202.713106,152.5888 C207.606278,149.415223 211.572687,141.693379 211.572687,135.343441 C211.572687,134.624072 211.522302,133.95297 211.424835,133.332921 C212.247522,132.996906 213.031388,132.834468 213.757434,132.834468 C216.664923,132.834468 218.660518,135.438119 218.660518,139.94276 C218.660518,146.29177 214.694108,154.013614 209.800936,157.188119 C208.379405,158.110767 207.034692,158.547958 205.844438,158.547958" id="Fill-77" fill="#3F0099"></path>
                <path d="M209.800936,157.188119 C204.907764,160.362624 200.940529,157.788676 200.940529,151.439666 C200.940529,145.089728 204.906938,137.368812 209.800936,134.194307 C214.694108,131.018874 218.660518,133.592822 218.660518,139.94276 C218.660518,146.29177 214.694108,154.013614 209.800936,157.188119 M227.520925,135.711015 C227.520925,122.173886 219.588106,116.347463 209.800936,122.696473 C200.013767,129.046411 192.080121,145.168626 192.080121,158.705755 L192.080121,161.787438 C192.080121,172.212252 202.588381,184.306931 207.42043,189.318379 C208.599119,190.540842 210.484857,190.149134 211.188601,188.530322 C215.363161,178.929765 227.521751,150.006498 227.520925,138.792698 L227.520925,135.711015" id="Fill-78" fill="#00A497"></path>
                <path d="M209.042676,190.034963 C208.469438,190.034963 207.888767,189.804765 207.42043,189.318379 C202.588381,184.306931 192.080121,172.212252 192.080121,161.787438 L192.080121,158.705755 C192.080121,145.168626 200.013767,129.046411 209.800936,122.696473 C212.488711,120.95328 215.035242,120.128094 217.317456,120.128094 C223.34554,120.128094 227.520925,125.891399 227.520925,135.711015 L227.520925,138.792698 C227.521751,150.006498 215.363161,178.929765 211.188601,188.530322 C210.764868,189.50495 209.911619,190.034963 209.042676,190.034963 M200.940529,151.439666 C200.940529,155.944307 202.936949,158.547958 205.844438,158.547958 C207.034692,158.547958 208.379405,158.110767 209.800936,157.188119 C214.694108,154.013614 218.660518,146.29177 218.660518,139.94276 C218.660518,135.438119 216.664923,132.834468 213.757434,132.834468 C213.031388,132.834468 212.247522,132.996906 211.424835,133.332921 C210.897852,133.548267 210.355176,133.834158 209.800936,134.194307 C204.906938,137.368812 200.940529,145.089728 200.940529,151.439666" id="Fill-79" fill="#6700F9"></path>
                <path d="M337.518998,300.394493 L337.519824,300.394493 L337.519824,292.056312 L282.131333,277.744121 L282.131333,286.070235 L282.137941,286.078589 C282.145374,286.263304 282.223018,286.491646 282.393998,286.760829 L303.96228,320.74474 C304.492566,321.579208 305.060848,321.439975 305.23348,320.432859 L307.964207,304.487005 C308.136839,303.480817 309.014042,302.612005 309.92511,302.546101 L336.824339,300.607054 C337.282764,300.573639 337.514042,300.495668 337.518998,300.394493" id="Fill-80" fill="#00A497"></path>
                <path d="M304.645374,321.289604 C304.434747,321.289604 304.195209,321.111386 303.96228,320.74474 L282.393998,286.760829 C282.223018,286.491646 282.145374,286.263304 282.137941,286.078589 L282.131333,286.070235 L282.131333,277.76547 C282.1462,277.944616 282.232104,278.167389 282.393998,278.42172 L303.96228,312.406559 C304.195209,312.773205 304.434747,312.951423 304.6462,312.951423 C304.915474,312.951423 305.136839,312.659963 305.23348,312.095606 L307.964207,296.149752 C308.136839,295.142636 309.014042,294.273824 309.92511,294.206993 L336.825165,292.267946 C337.27946,292.235458 337.511564,292.157488 337.519824,292.059097 L337.519824,300.394493 L337.518998,300.394493 C337.514042,300.495668 337.282764,300.573639 336.824339,300.607054 L309.92511,302.546101 C309.014042,302.612005 308.136839,303.480817 307.964207,304.487005 L305.23348,320.432859 C305.136839,320.998144 304.915474,321.289604 304.645374,321.289604" id="Fill-81" fill="#3F0099"></path>
                <path d="M305.23348,312.095606 L307.964207,296.149752 C308.136839,295.142636 309.014042,294.273824 309.92511,294.206993 L336.825165,292.267946 C337.735407,292.202042 337.753579,291.956993 336.866465,291.720297 L283.042401,277.340347 C282.15446,277.102723 281.864537,277.588181 282.393998,278.42172 L303.96228,312.406559 C304.492566,313.241027 305.060848,313.101795 305.23348,312.095606" id="Fill-82" fill="#00A497"></path>
                <path d="M304.6462,312.951423 C304.434747,312.951423 304.195209,312.773205 303.96228,312.406559 L282.393998,278.42172 C282.213932,278.138614 282.128855,277.896349 282.128855,277.707921 C282.129681,277.436881 282.308095,277.280012 282.638491,277.280012 C282.75413,277.280012 282.889593,277.299505 283.042401,277.340347 L336.866465,291.720297 C337.303414,291.836324 337.52065,291.955136 337.519824,292.053527 C337.519824,292.154703 337.286894,292.23453 336.825165,292.267946 L309.92511,294.206993 C309.014042,294.273824 308.136839,295.142636 307.964207,296.149752 L305.23348,312.095606 C305.136839,312.659963 304.915474,312.951423 304.6462,312.951423" id="Fill-83" fill="#6700F9"></path>
                <path d="M164.687775,37.512995 L150.619493,28.3858292 L150.567456,28.3514851 L150.463381,28.2837252 L150.461729,28.2892946 C143.521751,23.8719059 133.976597,24.5522896 123.436949,31.3904703 C102.225496,45.1522277 85.030837,78.6209777 85.030837,106.144493 C85.030837,119.821782 89.2797357,129.451114 96.1536344,133.996597 L96.1503304,134.001238 L96.2552313,134.068998 L96.3064427,134.101485 L110.375551,143.229579 L112.817181,136.008045 C116.191355,135.077042 119.751377,133.454517 123.437775,131.063428 C144.648403,117.301671 161.843888,83.8329208 161.843062,56.3084777 C161.843062,51.5652847 161.321861,47.3214728 160.367841,43.5946782 L164.687775,37.512995" id="Fill-84" fill="#1A003E"></path>
                <path d="M130.822963,37.0275371 C128.777808,37.0275371 126.78304,36.6061262 124.89565,35.7725866 C124.567731,35.6277847 124.406663,35.2119431 124.534692,34.8434406 C124.664372,34.4740099 125.03359,34.2939356 125.362335,34.4387376 C127.10022,35.2063738 128.937225,35.595297 130.822963,35.595297 C139.068833,35.595297 145.778359,28.0563119 145.778359,18.7899134 C145.778359,9.52351485 139.068833,1.9845297 130.822963,1.9845297 C130.47109,1.9845297 130.186123,1.66429455 130.186123,1.26887376 C130.186123,0.872524752 130.47109,0.552289604 130.822963,0.552289604 C139.772577,0.552289604 147.052863,8.73360149 147.052863,18.7899134 C147.052863,28.8462252 139.772577,37.0275371 130.822963,37.0275371" id="Fill-85" fill="#250058"></path>
                <path d="M137.66217,140.29177 C158.872797,126.530012 176.068282,93.0612624 176.068282,65.5377475 C176.068282,38.0133045 158.872797,26.8570545 137.661344,40.6197401 C116.44989,54.3814975 99.2552313,87.8502475 99.2552313,115.373762 C99.2552313,142.898205 116.450716,154.054455 137.66217,140.29177" id="Fill-86" fill="#5D449B"></path>
                <path d="M165.5625,65.5340347 C165.5625,88.8545792 150.378304,118.408106 132.407214,130.072092 C128.05837,132.889233 123.946586,134.384592 120.507159,134.384592 C116.802588,134.384592 114.365088,132.449257 112.761839,129.741646 C110.163271,125.341894 109.764317,118.9112 109.764317,115.377475 C109.756883,92.0578589 124.941079,62.5043317 142.91217,50.8403465 C147.261839,48.0222772 151.380231,46.5269183 154.811399,46.5269183 C155.028634,46.5269183 155.239262,46.5343441 155.442456,46.551052 C164.560573,47.1098391 165.5625,59.9461634 165.5625,65.5340347" id="Fill-87" fill="#250058"></path>
                <path d="M158.453194,60.9226485 C158.453194,84.2422649 143.269824,113.795792 125.298733,125.452351 C120.949064,128.277847 116.830672,129.764851 113.398678,129.764851 C113.182269,129.764851 112.971641,129.757426 112.761839,129.741646 C110.163271,125.341894 109.764317,118.9112 109.764317,115.377475 C109.756883,92.0578589 124.941079,62.5043317 142.91217,50.8403465 C147.261839,48.0222772 151.380231,46.5269183 154.811399,46.5269183 C155.028634,46.5269183 155.239262,46.5343441 155.442456,46.551052 C158.05424,50.9498762 158.453194,57.387995 158.453194,60.9226485" id="Fill-88" fill="#ECECE8"></path>
                <path d="M132.691355,82.9344059 L125.755507,78.7620668 C125.209526,78.4344059 124.457048,79.9928837 124.800661,80.740099 L129.166024,90.2348391 L132.691355,82.9344059" id="Fill-89" fill="#00A497"></path>
                <path d="M131.554791,93.3582921 L138.490639,97.529703 C139.037445,97.8582921 139.789923,96.2988861 139.445485,95.5516708 L135.080121,86.0569307 L131.554791,93.3582921" id="Fill-90" fill="#00A497"></path>
                <path d="M135.568282,83.0996287 L134.210352,63.5847772 C134.1038,62.0485767 132.700441,62.8449876 132.429515,64.5956064 L128.994218,86.8310644 L135.568282,83.0996287" id="Fill-91" fill="#00A497"></path>
                <path d="M128.677863,93.1930693 L130.035793,112.707921 C130.142346,114.243193 131.546531,113.446782 131.81663,111.696163 L135.251927,89.4607054 L128.677863,93.1930693" id="Fill-92" fill="#00A497"></path>
                <path d="M130.499174,83.7141089 L117.844163,94.8016708 C116.848018,95.6741955 116.731553,98.0262995 117.696311,97.7858911 L129.951542,94.7320545 L130.499174,83.7141089" id="Fill-93" fill="#00A497"></path>
                <path d="M133.746971,92.5776609 L146.401982,81.4910272 C147.398128,80.6175743 147.515419,78.2663985 146.550661,78.5058787 L134.29543,81.5597153 L133.746971,92.5776609" id="Fill-94" fill="#00A497"></path>
                <path d="M130.562775,113.524752 C130.29185,113.524752 130.075441,113.275062 130.035793,112.707921 L129.033866,98.3038366 L130.035793,112.707921 C130.075441,113.275062 130.29185,113.524752 130.562775,113.524752 C131.02533,113.524752 131.646476,112.799814 131.81663,111.696163 L134.386289,95.0615718 L134.387115,95.0615718 L131.81663,111.696163 C131.646476,112.799814 131.02533,113.524752 130.562775,113.524752 M117.844163,94.8016708 L127.411619,86.4189356 L117.844163,94.8016708 M129.859857,81.2311262 L125.755507,78.7620668 L129.859857,81.230198 L132.429515,64.5956064 L129.859857,81.2311262 M137.628304,80.7289604 L146.550661,78.5058787 L137.628304,80.7289604 M135.21228,77.9740099 L134.210352,63.5847772 L135.21228,77.9740099" id="Fill-95" fill="#9D9D9A"></path>
                <path d="M127.411619,86.4189356 L124.800661,80.740099 C124.740363,80.6092203 124.713932,80.4532797 124.713932,80.2862005 C124.714758,79.5918936 125.178965,78.7175124 125.598568,78.7175124 C125.651432,78.7175124 125.704295,78.7314356 125.755507,78.7620668 L129.859857,81.2311262 L129.491465,83.6157178 C129.192456,84.1485149 128.916575,84.720297 128.669604,85.3171411 L127.411619,86.4189356" id="Fill-96" fill="#6700F9"></path>
                <path d="M138.648403,97.5742574 C138.594714,97.5742574 138.54185,97.5603342 138.490639,97.529703 L134.387115,95.0606436 L134.386289,95.0615718 L134.755507,92.676052 C135.054515,92.143255 135.330396,91.5714728 135.576542,90.9746287 L136.834526,89.8728342 L139.445485,95.5516708 C139.505782,95.6825495 139.532214,95.8384901 139.532214,96.0055693 C139.532214,96.698948 139.067181,97.5742574 138.648403,97.5742574" id="Fill-97" fill="#6700F9"></path>
                <path d="M129.491465,83.6157178 L132.429515,64.5956064 C132.600496,63.4919554 133.220815,62.7679455 133.68337,62.7679455 C133.954295,62.7679455 134.170705,63.0167079 134.210352,63.5847772 L135.21228,77.9740099 L134.088932,79.7840347 C134.064152,79.7831064 134.038546,79.7821782 134.012941,79.7821782 C133.550385,79.7821782 133.047357,79.926052 132.51707,80.2267946 C131.405286,80.8579827 130.351322,82.0813738 129.491465,83.6157178" id="Fill-98" fill="#6700F9"></path>
                <path d="M130.562775,113.524752 C130.29185,113.524752 130.075441,113.275062 130.035793,112.707921 L129.033866,98.3038366 L130.148128,96.5077351 C130.176211,96.5086634 130.204295,96.5095916 130.233205,96.5095916 C130.69576,96.5095916 131.198789,96.366646 131.729075,96.0649752 C132.840859,95.4347153 133.894824,94.2113243 134.755507,92.676052 L131.81663,111.696163 C131.646476,112.799814 131.02533,113.524752 130.562775,113.524752" id="Fill-99" fill="#6700F9"></path>
                <path d="M117.564152,97.802599 C117.20402,97.802599 117.031388,97.3839728 117.031388,96.8428218 C117.031388,96.1531559 117.313051,95.2667079 117.844163,94.8016708 L128.669604,85.3171411 C127.960077,87.0343441 127.490914,88.9650371 127.398403,90.8279703 C127.386839,91.052599 127.381057,91.2725866 127.381057,91.4860767 C127.381057,92.0819926 127.424009,92.6342822 127.504956,93.1383045 L126.608756,95.5646658 L117.696311,97.7858911 C117.649229,97.7970297 117.605452,97.802599 117.564152,97.802599" id="Fill-100" fill="#6700F9"></path>
                <path d="M135.576542,90.9746287 C136.286068,89.2574257 136.755231,87.3267327 136.848568,85.4637995 C136.859306,85.2391708 136.865088,85.0201114 136.865088,84.8066213 C136.865088,84.2042079 136.821311,83.646349 136.738711,83.1386139 L137.628304,80.7289604 L146.550661,78.5058787 C146.596916,78.4947401 146.640694,78.4891708 146.681993,78.4891708 C147.042126,78.4891708 147.214758,78.9087252 147.214758,79.448948 C147.214758,80.1386139 146.933095,81.0250619 146.401982,81.4910272 L135.576542,90.9746287" id="Fill-101" fill="#6700F9"></path>
                <path d="M135.253579,87.1624381 L141.40391,70.5009282 C141.888767,69.1884282 141.188326,68.3418936 140.515969,69.426052 L131.972742,83.1943069 L135.253579,87.1624381" id="Fill-102" fill="#6700F9"></path>
                <path d="M128.98761,89.1228342 L122.836454,105.785272 C122.352423,107.096844 123.052863,107.943379 123.72522,106.85922 L132.268447,93.0900371 L128.98761,89.1228342" id="Fill-103" fill="#6700F9"></path>
                <path d="M127.398403,90.8279703 C127.615639,86.4542079 129.907764,81.7082302 132.51707,80.2267946 C135.127203,78.7453589 137.065804,81.0900371 136.848568,85.4637995 C136.630507,89.8375619 134.339207,94.5844678 131.729075,96.0649752 C129.119769,97.5464109 127.180341,95.2017327 127.398403,90.8279703" id="Fill-104" fill="#ECECE8"></path>
                <path d="M127.398403,90.8279703 C127.615639,86.4542079 129.907764,81.7082302 132.51707,80.2267946 C135.127203,78.7453589 137.065804,81.0900371 136.848568,85.4637995 C136.630507,89.8375619 134.339207,94.5844678 131.729075,96.0649752 C129.119769,97.5464109 127.180341,95.2017327 127.398403,90.8279703" id="Fill-105" fill="#00A497"></path>
                <path d="M130.233205,96.5095916 C130.204295,96.5095916 130.176211,96.5086634 130.148128,96.5077351 C128.82076,96.4566832 127.838656,95.2110149 127.504956,93.1383045 C127.424009,92.6342822 127.381057,92.0819926 127.381057,91.4860767 C127.381057,91.2725866 127.386839,91.052599 127.398403,90.8279703 C127.615639,86.4542079 129.907764,81.7082302 132.51707,80.2267946 C133.047357,79.926052 133.550385,79.7821782 134.012941,79.7821782 C135.709526,79.7821782 136.865088,81.7045173 136.865088,84.8066213 C136.865088,85.0201114 136.859306,85.2391708 136.848568,85.4637995 C136.630507,89.8375619 134.339207,94.5844678 131.729075,96.0649752 C131.198789,96.366646 130.69576,96.5095916 130.233205,96.5095916" id="Fill-106" fill="#3F0099"></path>
                <path d="M129.075165,89.876547 C129.215584,87.0547649 130.694108,83.9925743 132.377478,83.0365099 C134.060848,82.0804455 135.312225,83.5934406 135.171806,86.4152228 C135.031388,89.237005 133.552863,92.2991955 131.868667,93.2552599 C130.185297,94.210396 128.934747,92.6983292 129.075165,89.876547" id="Fill-107" fill="#9B60F0"></path>
                <path d="M138.59554,28.5046411 L134.436674,28.5046411 C132.023128,27.6386139 129.075165,27.6386139 126.661619,28.5046411 L122.502753,28.5046411 L122.502753,34.7246287 L122.525881,34.7246287 C122.39207,36.1642946 123.164372,37.6327351 124.859306,38.7326733 C128.002203,40.7719678 133.096916,40.7719678 136.238987,38.7336015 C137.934747,37.6336634 138.707048,36.1642946 138.572412,34.7246287 L138.59554,34.7246287 L138.59554,28.5046411" id="Fill-108" fill="#DFDFDA"></path>
                <path d="M138.59554,28.5046411 L134.436674,28.5046411 C132.023128,27.6386139 129.075165,27.6386139 126.661619,28.5046411 L122.502753,28.5046411 L122.502753,34.7246287 L122.525881,34.7246287 C122.39207,36.1642946 123.164372,37.6327351 124.859306,38.7326733 C128.002203,40.7719678 133.096916,40.7719678 136.238987,38.7336015 C137.934747,37.6336634 138.707048,36.1642946 138.572412,34.7246287 L138.59554,34.7246287 L138.59554,28.5046411" id="Fill-109" fill="#3E0096"></path>
                <path d="M124.859306,24.8121906 C121.71641,26.8514851 121.71641,30.1568688 124.859306,32.1952351 C128.001377,34.2345297 133.09609,34.2345297 136.238987,32.1961634 C139.381057,30.157797 139.381057,26.8514851 136.238987,24.8131188 C133.09609,22.7738243 128.001377,22.7738243 124.859306,24.8121906" id="Fill-110" fill="#ECECE8"></path>
                <path d="M142.090308,22.0563119 L136.26707,22.0563119 C132.887941,20.8440594 128.758811,20.8440594 125.379681,22.0563119 L119.557269,22.0563119 L119.557269,25.9715347 L119.589482,25.9715347 C119.401982,27.9866955 120.483205,30.0436262 122.856278,31.5835396 C127.257159,34.4387376 134.391244,34.4387376 138.790474,31.5844678 C141.165198,30.0436262 142.245595,27.9876238 142.058095,25.9715347 L142.090308,25.9715347 L142.090308,22.0563119" id="Fill-111" fill="#250058"></path>
                <path d="M122.856278,16.8870668 C118.456222,19.7413366 118.456222,24.3703589 122.856278,27.2246287 C127.255507,30.0798267 134.390419,30.0798267 138.789648,27.2246287 C143.189703,24.3703589 143.189703,19.7422649 138.789648,16.8870668 C134.390419,14.0318688 127.255507,14.0318688 122.856278,16.8870668" id="Fill-112" fill="#3E0096"></path>
                <path d="M125.128579,35.8217822 C125.050936,35.8217822 124.972467,35.8069307 124.89565,35.7725866 C118.637941,33.0120668 114.594714,26.3456064 114.594714,18.7899134 C114.594714,8.73360149 121.874174,0.552289604 130.822963,0.552289604 C131.175661,0.552289604 131.460628,0.872524752 131.460628,1.26887376 C131.460628,1.66429455 131.175661,1.9845297 130.822963,1.9845297 C122.577919,1.9845297 115.869218,9.52351485 115.869218,18.7899134 C115.869218,25.7524752 119.595264,31.8944926 125.362335,34.4387376 C125.689427,34.5826114 125.851322,34.998453 125.722467,35.3678837 C125.623348,35.6491337 125.382985,35.8217822 125.128579,35.8217822" id="Fill-113" fill="#250058"></path>
                <path d="M47.7323789,176.017017 C45.7623899,176.017017 43.9922907,178.009901 43.9922907,183.75 C43.9922907,189.490099 43.590033,194.096844 46.7230176,194.096844 L47.7323789,176.017017" id="Fill-114" fill="#00A497"></path>
                <path d="M45.4220815,193.720916 C44.1351872,192.810334 43.9757709,190.321782 43.9757709,187.108292 C43.9757709,186.056621 43.9922907,184.92698 43.9922907,183.75 C43.9922907,178.837871 45.2882709,176.669554 46.8973018,176.146968 C46.783315,176.675124 46.7230176,177.227413 46.7230176,177.795483 L46.7230176,188.94802 C46.2860683,190.524134 45.843337,192.152228 45.4220815,193.720916" id="Fill-115" fill="#D4BAFB"></path>
                <path d="M52.9468612,218.324257 L65.9256608,218.324257 C69.3626101,218.324257 72.1495044,215.19245 72.1495044,211.330136 L72.1495044,177.795483 C72.1495044,173.933168 69.3626101,170.801361 65.9256608,170.801361 L52.9468612,170.801361 C49.5090859,170.801361 46.7230176,173.933168 46.7230176,177.795483 L46.7230176,211.330136 C46.7230176,215.19245 49.5090859,218.324257 52.9468612,218.324257" id="Fill-116" fill="#00A497"></path>
                <path d="M53.7431167,218.324257 L52.9468612,218.324257 C49.5090859,218.324257 46.7230176,215.19245 46.7230176,211.330136 L46.7230176,203.474629 L50.6530837,200.585087 C52.5379956,195.645111 55.4388767,188.112624 55.4388767,188.112624 L56.6836454,191.276918 L56.6836454,191.277847 L57.9019824,195.064975 C56.8554515,197.997215 55.7486233,199.802599 55.7486233,199.802599 L55.7486233,204.7862 C55.7486233,204.7862 57.5492841,203.02073 59.4721916,199.967822 L60.4369493,202.948329 C58.4867841,206.438428 56.7241189,208.975248 55.4727423,211.872215 L55.4132709,211.875 C55.1869493,212.492265 54.8962004,213.26547 54.6120595,214.20854 C54.5385463,214.449876 54.468337,214.695854 54.4014317,214.946473 C54.1412445,215.915532 53.901707,217.037748 53.7431167,218.324257 M46.7230176,188.94802 L46.7230176,177.795483 C46.7230176,173.933168 49.5090859,170.801361 52.9468612,170.801361 L64.0969163,170.801361 L64.0870044,173.04672 L64.0870044,173.047649 L63.3056167,173.07271 C63.3056167,173.07271 63.1569383,173.094059 62.8992291,173.131188 C62.8744493,172.945545 62.4870595,172.868502 61.9245595,172.868502 C60.3039648,172.868502 57.2345815,173.508973 57.2312775,174.046411 C57.2304515,174.05198 57.2312775,174.058478 57.2321035,174.064975 C56.4870595,174.215347 55.9088656,174.357364 55.686674,174.469678 C53.346641,174.761139 51.0223018,175.086943 49.0754405,180.956064 C48.4551211,182.82828 47.6002203,185.785582 46.7230176,188.94802" id="Fill-117" fill="#6700F9"></path>
                <path d="M74.5969163,173.438428 L77.0096366,173.438428 C79.4859581,173.438428 81.656663,175.301361 82.3075441,177.986696 L85.4950441,191.133973 L74.5969163,191.133973 L74.5969163,173.438428" id="Fill-118" fill="#E88587"></path>
                <path d="M50.6530837,200.585087 C52.5379956,195.645111 55.4388767,188.112624 55.4388767,188.112624 L56.6836454,191.277847 C56.6836454,191.277847 60.1718062,187.850866 60.3939978,183.543007 C60.8127753,175.436881 55.686674,174.469678 55.686674,174.469678 C53.346641,174.761139 51.0223018,175.086943 49.0754405,180.956064 C47.5894824,185.436572 44.7621145,196.143564 43.5066079,200.960087 C43.1192181,202.44802 43.6090308,204.037129 44.7299009,204.940285 L50.6530837,200.585087" id="Fill-119" fill="#EC9C9E"></path>
                <path d="M70.0242291,167.56745 L66.9490639,167.56745 C60.7632159,167.56745 55.7486233,161.931312 55.7486233,154.979889 C55.7486233,147.074257 61.4512665,140.664913 68.4870595,140.664913 C75.5220264,140.664913 81.2254956,147.074257 81.2254956,154.979889 C81.2254956,161.931312 76.2109031,167.56745 70.0242291,167.56745" id="Fill-120" fill="#1A282B"></path>
                <path d="M40.2431167,280.232673 C39.2676211,279.668317 38.6473018,281.060644 37.7626652,282.17729 C37.1423458,282.961634 36.1742841,284.201733 36.0305617,285.09375 C35.8191079,286.415532 36.8788546,288.495668 38.0525881,289.642017 C39.2263216,290.789295 40.5883811,291.609839 41.0154185,294.123453 C41.44163,296.637995 42.3105727,298.132426 44.6299559,299.256498 C47.1707048,300.488243 50.5737885,300.09375 51.7285242,299.256498 C53.0963656,298.264233 51.847467,297.174505 49.9311674,294.091894 C47.4300661,290.070854 45.4823789,287.19802 45.4823789,283.446163 L40.2431167,280.232673" id="Fill-121" fill="#250058"></path>
                <path d="M42.2428414,276.939356 L40.1894273,280.320854 C39.2998348,281.78651 39.5773678,283.830446 40.8824339,284.827351 L40.9468612,284.874691 C42.1957599,285.785272 43.871696,285.421411 44.8777533,284.187809 L48.0825991,280.257735 L42.2428414,276.939356" id="Fill-122" fill="#EC9C9E"></path>
                <path d="M81.470815,215.63521 C81.6004956,219.944926 79.968337,232.763614 77.1698789,241.012686 C74.5498348,248.735458 72.1792401,252.866027 71.344989,254.469988 C70.5107379,256.07302 46.4826542,282.362005 46.4826542,282.362005 C46.4826542,282.362005 42.4055617,282.02599 41.7571586,277.581683 C41.7571586,277.581683 51.6029736,258.774134 53.7340308,254.91646 C55.8650881,251.059715 63.4171256,245.145111 63.4171256,245.145111 L62.7299009,211.405322 L81.470815,215.63521" id="Fill-123" fill="#00A497"></path>
                <path d="M46.4826542,282.362005 C46.4826542,282.362005 46.4454846,282.358292 46.3769273,282.34901 C45.7400881,282.260829 42.4146476,281.613861 41.7769824,277.706993 C41.7695485,277.666151 41.7637665,277.623453 41.7571586,277.581683 C41.7571586,277.581683 51.6029736,258.774134 53.7340308,254.91646 C54.9911894,252.641399 58.1332599,249.651609 60.4997247,247.580755 C60.6029736,247.836015 60.7062225,248.089418 60.8069934,248.337252 C61.6024229,252.673886 63.3411344,256.952042 63.3411344,256.952042 C62.7736784,259.320854 62.7282489,262.982673 62.7282489,264.094678 C62.7282489,264.301671 62.7299009,264.419554 62.7299009,264.426052 C62.0996696,265.129641 61.4562225,265.846225 60.8053414,266.570235 C59.0848018,268.483292 57.3138767,270.443688 55.6313326,272.30198 C54.1792401,273.905941 52.7915749,275.433787 51.5558921,276.793626 C48.5790198,280.068379 46.4826542,282.362005 46.4826542,282.362005 M64.3199339,256.427599 C63.8507709,255.707302 63.0702093,253.84901 62.3507709,252.017636 C63.5170705,254.726176 64.3199339,256.427599 64.3199339,256.427599 M73.878304,249.404703 C73.8270925,248.980507 73.7734031,248.549814 73.7197137,248.11448 L72.5013767,228.92729 C74.2227423,226.878713 75.7912996,224.306621 75.7912996,224.306621 C74.4647577,226.000619 70.9807269,228.176361 70.9807269,228.176361 C70.9807269,228.176361 72.6698789,226.44802 75.3386564,222.304455 C76.2885463,220.829517 76.970815,219.395421 77.4581498,218.068998 C78.7739537,217.420173 80.1128855,216.617265 81.470815,215.63521 C81.4757709,215.794864 81.4782489,215.966584 81.4782489,216.149443 C81.4782489,220.89078 79.8650881,233.069926 77.1698789,241.012686 C75.9812775,244.51578 74.8438877,247.280941 73.878304,249.404703 M73.4306167,245.834777 C72.3477423,237.413985 70.9807269,228.176361 70.9807269,228.176361 C71.4275881,230.246287 72.8218612,241.048886 73.4306167,245.834777" id="Fill-124" fill="#6700F9"></path>
                <polyline id="Fill-125" fill="#EC9C9E" points="74.6654736 302.779084 79.7453194 301.480507 78.0636013 293.167389 72.9837555 294.465037 74.6654736 302.779084"></polyline>
                <path d="M77.0344163,210.92172 L55.4132709,211.875 C54.6740088,213.892946 53.248348,217.572401 53.6026982,223.387686 C54.3237885,235.236386 64.3199339,256.427599 64.3199339,256.427599 C64.1993392,258.0362 63.5938877,264.798267 64.9592511,270.792698 C67.1134361,280.249381 72.9837555,296.252785 72.9837555,296.252785 C72.9837555,296.252785 76.6618943,296.843131 78.4881608,294.452042 C78.4881608,294.452042 75.2378855,261.959777 74.3615088,253.634592 C73.4140969,244.626238 70.9807269,228.176361 70.9807269,228.176361 C70.9807269,228.176361 72.6698789,226.44802 75.3386564,222.304455 C79.221641,216.275681 78.6236233,210.92172 78.6236233,210.92172 L77.0344163,210.92172" id="Fill-126" fill="#00A497"></path>
                <path d="M73.9889868,296.31776 C73.3851872,296.31776 72.9837555,296.252785 72.9837555,296.252785 C72.9837555,296.252785 67.1134361,280.249381 64.9592511,270.792698 C64.3703194,268.20854 64.1481278,265.483292 64.0952643,263.08849 L64.0960903,263.08849 C64.0936123,263.013304 64.0919604,262.917698 64.0919604,262.804455 C64.0919604,261.246906 64.3199339,256.427599 64.3199339,256.427599 C64.3199339,256.427599 63.5170705,254.726176 62.3507709,252.017636 C61.4653084,249.762067 60.6731828,247.546411 60.6731828,247.546411 C60.7136564,247.809097 60.7590859,248.073639 60.8069934,248.337252 C57.8515969,241.092512 54.0371696,230.538676 53.6026982,223.387686 C53.5638767,222.762995 53.5465308,222.163366 53.5465308,221.586943 C53.5465308,218.852413 53.9405286,216.659035 54.4014317,214.946473 C54.3890419,214.993812 54.376652,215.040223 54.3642621,215.087562 C55.6106828,216.710087 60.7929515,220.399752 67.8403084,220.400681 C70.7734031,220.400681 74.0286344,219.762067 77.4581498,218.068998 C76.970815,219.395421 76.2885463,220.829517 75.3386564,222.304455 C72.6698789,226.44802 70.9807269,228.176361 70.9807269,228.176361 C70.9807269,228.176361 72.3477423,237.413985 73.4306167,245.834777 C73.6090308,247.235458 73.7197137,248.120978 73.7197137,248.120978 L73.7197137,248.11448 C73.967511,250.105507 74.1888767,251.993502 74.3615088,253.634592 C75.2378855,261.959777 78.4881608,294.452042 78.4881608,294.452042 C77.2648678,296.053218 75.2122797,296.31776 73.9889868,296.31776 M54.6120595,214.20854 C54.8962004,213.26547 55.1869493,212.492265 55.4132709,211.875 L55.4727423,211.872215 C55.1506057,212.619431 54.8615088,213.39078 54.6120595,214.20854" id="Fill-127" fill="#6700F9"></path>
                <path d="M79.1753855,298.662438 L79.0101872,297.846535 C79.5446035,297.959777 81.8243392,302.215656 84.0867291,304.064666 C86.5647026,306.089109 88.7155837,307.28651 89.8224119,308.198948 C91.3025881,309.420483 89.159141,311.920173 85.5140419,312.143874 C83.7051211,312.254332 80.4118943,311.636139 79.3959251,310.552908 C78.3816079,309.470606 77.6464758,307.679146 76.8419604,306.900371 C76.0382709,306.122525 74.4094163,305.441213 73.8576542,304.444307 C73.5545154,303.89573 73.5082599,302.538676 73.5421256,301.372834 C73.5735132,300.303527 73.6040749,299.127475 73.9303414,299.144183 C73.9559471,299.266708 74.0558921,299.767017 74.0558921,299.767017 C74.5176211,300.131807 75.9664097,300.594059 77.1459251,300.532797 C78.003304,300.487314 79.5999449,300.263614 79.1753855,298.662438" id="Fill-128" fill="#250058"></path>
                <path d="M73.7197137,248.120978 C73.7197137,248.120978 71.5580947,230.851485 70.9807269,228.176361 C70.9807269,228.176361 74.4647577,226.000619 75.7912996,224.306621 C75.7912996,224.306621 74.2227423,226.878713 72.5013767,228.92729 L73.7197137,248.120978" id="Fill-129" fill="#00A497"></path>
                <path d="M73.7197137,248.120978 C73.7197137,248.120978 71.5580947,230.851485 70.9807269,228.176361 C70.9807269,228.176361 74.4647577,226.000619 75.7912996,224.306621 C75.7912996,224.306621 74.2227423,226.878713 72.5013767,228.92729 L73.7197137,248.120978" id="Fill-130" fill="#3F0099"></path>
                <path d="M60.6731828,247.546411 C60.6731828,247.546411 63.2725771,254.818998 64.3199339,256.427599 C64.3199339,256.427599 64.0580947,261.969059 64.0960903,263.08849 L62.7299009,264.426052 C62.7299009,264.426052 62.6654736,259.772896 63.3411344,256.952042 C63.3411344,256.952042 61.3843612,252.137376 60.6731828,247.546411" id="Fill-131" fill="#00A497"></path>
                <path d="M62.7299009,264.426052 C62.7299009,264.419554 62.7282489,264.301671 62.7282489,264.094678 C62.7282489,262.982673 62.7736784,259.320854 63.3411344,256.952042 C63.3411344,256.952042 61.3843612,252.137376 60.6731828,247.546411 C60.6731828,247.546411 63.2725771,254.818998 64.3199339,256.427599 C64.3199339,256.427599 64.0919604,261.246906 64.0919604,262.804455 C64.0919604,262.917698 64.0936123,263.013304 64.0960903,263.08849 L64.0952643,263.08849 L62.7299009,264.426052" id="Fill-132" fill="#3F0099"></path>
                <path d="M63.3056167,173.07271 C63.3056167,173.07271 56.5845264,174.016708 55.686674,174.469678 C60.1536344,179.562809 56.6836454,191.277847 56.6836454,191.277847 L60.4369493,202.948329 C57.8069934,207.654394 55.5189978,210.628403 54.3642621,215.087562 C56.3284692,217.643874 68.060022,225.334158 81.470815,215.63521 C81.470815,215.63521 80.6836454,207.164295 79.5611233,200.755879 C81.4955947,190.357983 82.030011,186.696163 81.470815,184.263304 C79.8956498,177.414913 76.2877203,173.037438 72.1495044,172.782178 L63.3056167,173.07271" id="Fill-133" fill="#9B60F0"></path>
                <path d="M77.0401982,147.276609 C78.3857379,148.169554 80.0492841,151.973391 79.8849119,159.945854 C79.7461454,166.702351 77.7968062,168.371287 76.8180066,168.852104 C75.840033,169.333849 73.9526432,169.04146 72.1172907,168.697092 L72.1172907,172.752475 C72.1172907,172.752475 74.6530837,176.0625 74.4936674,177.92172 C74.3342511,179.781869 70.8320485,180.220916 68.4589758,178.404394 C66.0859031,176.587871 64.0870044,173.04672 64.0870044,173.04672 L64.128304,163.7237 C64.128304,163.7237 63.0487335,164.901609 61.217511,163.102723 C59.7059471,161.617574 59.1963106,159.113243 60.375,157.769183 C61.5520374,156.425124 63.7301762,156.79177 64.5652533,158.707611 C64.5652533,158.707611 67.4909141,158.82828 71.3879405,156.422339 C75.284141,154.016399 76.781663,149.89604 77.0401982,147.276609" id="Fill-134" fill="#EC9C9E"></path>
                <path d="M73.1712555,158.248144 C73.1935573,158.735458 72.8730727,159.147587 72.4559471,159.169864 C72.0388216,159.192141 71.6836454,158.815285 71.6613436,158.328899 C71.6398678,157.841584 71.9603524,157.428527 72.377478,157.40625 C72.7946035,157.383973 73.1506057,157.760829 73.1712555,158.248144" id="Fill-135" fill="#1A282B"></path>
                <path d="M73.3736233,163.976176 L75.1296806,164.605507 C74.9843062,165.169864 74.4721916,165.486386 73.9881608,165.312809 C73.502478,165.139233 73.2282489,164.540532 73.3736233,163.976176" id="Fill-136" fill="#E88587"></path>
                <path d="M79.3711454,155.638923 L77.8414097,154.447092 C78.1205947,153.956064 78.6888767,153.825186 79.1117841,154.153775 C79.5346916,154.483292 79.6503304,155.147896 79.3711454,155.638923" id="Fill-137" fill="#1A282B"></path>
                <path d="M79.0184471,157.633663 C79.0407489,158.12005 78.7202643,158.533106 78.3031388,158.555384 C77.8851872,158.577661 77.530011,158.200804 77.5085352,157.714418 C77.4862335,157.227104 77.8067181,156.814975 78.2238436,156.792698 C78.6409692,156.770421 78.9969714,157.147277 79.0184471,157.633663" id="Fill-138" fill="#1A282B"></path>
                <polyline id="Fill-139" fill="#E88587" points="75.4518172 157.147277 75.5715859 162.261757 77.9677863 161.428218 75.4518172 157.147277"></polyline>
                <path d="M72.1172907,168.697092 C70.1836454,168.412129 66.2056718,167.128403 65.5853524,165.361077 C65.5853524,165.361077 65.7926762,166.471225 66.9804515,167.615718 C68.1690529,168.76021 72.1172907,170.050433 72.1172907,170.050433 L72.1172907,168.697092" id="Fill-140" fill="#E88587"></path>
                <polyline id="Fill-141" fill="#00A497" points="58.4223568 196.725557 63.7161344 204.7862 60.4369493 202.948329 58.4223568 196.725557"></polyline>
                <path d="M63.7161344,204.7862 L60.4369493,202.948329 L59.4721916,199.967822 C59.6448238,199.693998 59.8182819,199.409035 59.9917401,199.11479 L63.7161344,204.7862" id="Fill-142" fill="#6700F9"></path>
                <path d="M65.6473018,209.562809 C65.6539097,209.465347 65.6943833,209.367884 65.7695485,209.268564 C66.375,208.477723 68.4209802,206.809715 68.5589207,206.404084 C68.6960352,205.998453 67.5867291,205.616955 65.7406388,205.940903 C63.8945485,206.26578 60.282489,207.413057 57.94163,207.247834 C56.4160242,207.139233 52.9121696,203.270421 50.6530837,200.585087 L44.7299009,204.940285 C48.560022,208.027537 53.9165749,211.630879 56.5424009,212.615718 C59.0534141,213.556002 61.1010463,215.178527 64.0407489,215.767946" id="Fill-143" fill="#EC9C9E"></path>
                <polyline id="Fill-144" fill="#4A01B0" points="68.2252203 187.17698 78.5005507 189.86974 85.0985683 183.393564 93.5947137 185.783725 99.9218062 179.017017 88.7990088 210.805693 85.0985683 214.425743 78.3436123 214.097153 71.9562225 219.942141 64.6974119 218.141399 68.2252203 187.17698"></polyline>
                <polyline id="Fill-145" fill="#250058" points="85.0985683 183.393564 78.3436123 214.097153 71.9562225 219.942141 78.5005507 189.86974 85.0985683 183.393564"></polyline>
                <polyline id="Fill-146" fill="#250058" points="93.5947137 185.783725 99.9218062 179.017017 88.7990088 210.805693 85.0985683 214.425743 93.5947137 185.783725"></polyline>
                <path d="M51.2981828,171.219988 L53.3325991,171.219988 C56.1475771,171.219988 58.4297907,168.655322 58.4297907,165.491955 L58.4297907,148.023824 L56.3953744,148.023824 C53.5803965,148.023824 51.2981828,150.58849 51.2981828,153.751856 L51.2981828,171.219988" id="Fill-147" fill="#1A282B"></path>
                <path d="M57.2321035,174.064975 C57.2321035,174.064975 59.6010463,176.034653 59.7249449,184.574257 C59.8496696,193.113861 55.7486233,199.802599 55.7486233,199.802599 L55.7486233,204.7862 C55.7486233,204.7862 62.1806167,198.476176 63.7161344,189.096535 C65.4540198,178.482364 62.8992291,173.131188 62.8992291,173.131188 C62.8042401,172.405322 57.1371145,173.339109 57.2321035,174.064975" id="Fill-148" fill="#00A497"></path>
                <path d="M55.7486233,204.7862 L55.7486233,199.802599 C55.7486233,199.802599 59.7299009,193.308787 59.7274229,184.948329 C59.7274229,184.823948 59.7265969,184.699567 59.7249449,184.574257 C59.6010463,176.034653 57.2321035,174.064975 57.2321035,174.064975 C57.2312775,174.058478 57.2304515,174.052908 57.2312775,174.046411 C57.2345815,173.508973 60.3039648,172.868502 61.9245595,172.868502 C62.4870595,172.868502 62.8752753,172.945545 62.8992291,173.131188 C62.8992291,173.131188 64.3215859,176.109839 64.3215859,182.030941 C64.3215859,184.046101 64.1572137,186.401918 63.7161344,189.096535 C63.0652533,193.068379 61.5371696,196.48979 59.9917401,199.11479 C59.8182819,199.409035 59.6448238,199.693998 59.4721916,199.967822 C57.5492841,203.02073 55.7486233,204.7862 55.7486233,204.7862" id="Fill-149" fill="#D4BAFB"></path>
                <path d="M79.8956498,179.539604 C79.8956498,179.539604 76.3381057,173.883045 72.1172907,172.752475 C72.1172907,172.752475 74.4589758,171.903156 76.7098018,173.287129 C76.7098018,173.287129 79.0688326,175.408106 79.8956498,179.539604" id="Fill-150" fill="#00A497"></path>
                <path d="M79.8956498,179.539604 C79.8956498,179.539604 76.3381057,173.883045 72.1172907,172.752475 C72.1172907,172.752475 72.8284692,172.494431 73.8436123,172.494431 C74.6704295,172.494431 75.6987885,172.666151 76.7098018,173.287129 C76.7098018,173.287129 79.0688326,175.408106 79.8956498,179.539604" id="Fill-151" fill="#D4BAFB"></path>
                <path d="M73.3397577,211.564047 C73.0498348,210.467822 71.6704295,211.537129 69.2610132,211.162129 C67.1522577,210.835396 65.5977423,210.236696 65.6473018,209.562809 L64.0407489,215.767946 C64.7147577,215.904394 65.435848,215.985149 66.2197137,215.991646 C70.4231828,216.02599 73.6296806,212.6612 73.3397577,211.564047" id="Fill-152" fill="#EC9C9E"></path>
                <path d="M263.427588,54.0204208 L256.348018,58.6132426 C256.383535,58.2577351 256.408315,57.9059406 256.408315,57.5606436 L256.408315,55.2558787 C256.408315,51.1550124 253.84609,49.4925743 250.685022,51.5430074 C249.405562,52.3737624 248.227698,53.689047 247.274504,55.2289604 C246.756608,50.0717822 243.156938,48.1503713 238.783315,50.9879332 C234.054515,54.0556931 230.221916,61.5167079 230.221916,67.6531559 L230.221916,71.1005569 C230.221916,72.6896658 230.48293,74.0281559 230.947137,75.0946782 L225.066079,78.9096535 C223.313326,80.0476485 221.892621,82.8137376 221.892621,85.0878713 C221.892621,87.3629332 223.313326,88.2855817 225.066079,87.1485149 L263.427588,62.258354 C265.181167,61.1212871 266.602698,58.355198 266.602698,56.0801361 C266.602698,53.8060025 265.181167,52.883354 263.427588,54.0204208" id="Fill-153" fill="#ECECE8"></path>
            </g>
        </g>
    </g>
</svg>