<?xml version="1.0" encoding="UTF-8"?>
<svg width="100px" height="100px" viewBox="0 0 100 100" version="1.1" xmlns="http://www.w3.org/2000/svg" xmlns:xlink="http://www.w3.org/1999/xlink">
    <!-- Generator: Sketch 52.6 (67491) - http://www.bohemiancoding.com/sketch -->
    <title>ART</title>
    <desc>Created with Sketch.</desc>
    <g id="Page-1" stroke="none" stroke-width="1" fill="none" fill-rule="evenodd">
        <g id="ART">
            <rect id="Rectangle" stroke="#6700F9" stroke-width="2" fill="#FFFFFF" x="1" y="1" width="98" height="98" rx="49"></rect>
            <g id="art" transform="translate(19.000000, 19.000000)" fill="#6700F9">
                <circle id="Oval" cx="42" cy="29" r="1"></circle>
                <path d="M41.9321763,34.0134446 C41.2492911,33.9140109 40.6126904,34.3768499 40.5114897,35.0466484 C40.1696093,37.3093487 38.2181511,39.1859615 35.2914641,40.0667656 C32.1632516,41.0082598 27.821132,40.692671 25.1722776,37.8654911 C24.7049284,37.3667284 23.9135871,37.3338699 23.4048319,37.7916821 C22.8959517,38.2497394 22.8623015,39.0253472 23.3295257,39.5239872 C24.8629215,41.1606595 26.9456027,42.2761321 29.3524012,42.7497604 C30.2022863,42.9169955 31.0839451,43 31.9713582,43 C33.3421325,43 34.7264169,42.8019907 36.0258879,42.4108765 C39.897531,41.2457483 42.4996003,38.6271218 42.9863391,35.405885 C43.0875397,34.7360865 42.615562,34.1126332 41.9321763,34.0134446 Z" id="Path"></path>
                <path d="M59.1026969,23.4294785 C56.8491167,20.8367578 53.7387892,19.1556914 49.9948903,18.4805332 C53.5793425,16.0798887 56.671072,13.6908105 58.8755535,11.6061504 C62.2367058,8.42772656 63.3637439,6.19417969 62.4226857,4.5774668 C61.375495,2.77679883 58.3525781,2.78922656 52.908823,4.61696484 C48.3092927,6.16120312 42.5793766,8.84325586 36.7748206,12.1692129 C35.7721411,12.7435957 34.7788846,13.3317598 33.8070777,13.9244766 C33.0863437,11.904416 33.5617083,9.59691797 35.1519602,7.59605273 C36.3430994,6.0973418 36.6090506,4.19380664 35.8461611,2.62803516 C35.0464476,0.986958984 33.2912935,0.0044296875 31.1481854,0 L31.0899117,0 C23.5259861,0 16.1275826,2.96186133 10.2576856,8.33999414 C4.38047353,13.7247715 0.782382822,20.853123 0.126245812,28.4117695 C-0.663176776,37.5147773 2.26885799,46.1691562 8.38201658,52.7805879 C14.3871829,59.275248 22.9007217,63 31.7396014,63 C36.4982066,63 40.9654432,62.1359648 45.0169529,60.4316426 C48.7216721,58.8732539 52.0115321,56.6480742 54.7952789,53.817627 C57.3763077,51.1931602 59.4112995,48.1719902 60.8437165,44.8377891 C62.206825,41.6651484 62.9514885,38.3030156 62.9976115,35.1149941 C63.0646882,30.478834 61.717822,26.4380977 59.1026969,23.4294785 Z M33.9520181,16.7328984 C35.2642921,15.9115605 36.6309962,15.0931758 38.0145625,14.3005078 C43.3814458,11.2253203 48.7257636,8.69240039 53.0631863,7.16821875 C57.8379097,5.49047461 59.7928062,5.59998633 60.2485809,5.81654883 C60.2091532,6.10287891 59.850832,7.3767832 56.717567,10.2403301 C54.101202,12.6315 50.2805554,15.4434902 45.9594989,18.1582734 C44.5935387,19.0167715 43.1719085,19.8699785 41.7342841,20.6939004 C39.7523585,21.8291309 37.7719208,22.8906562 35.8281831,23.8626035 C35.440353,22.7393086 34.9432908,21.6492363 34.3383603,20.6092441 C33.7520277,19.6013672 33.0719613,18.6551367 32.3117995,17.7796582 C32.8497773,17.4297129 33.3971781,17.0797676 33.9520181,16.7328984 Z M33.5817941,24.9541523 C30.0807849,26.601873 26.8682925,27.8580586 24.302886,28.5867422 C24.1693525,27.9502207 23.9345219,27.3349863 23.6013699,26.761834 C23.2855761,26.218582 22.889439,25.732916 22.4315565,25.3140645 C24.3521087,23.4746367 27.0552642,21.3434648 30.2382479,19.1631973 C30.9772079,19.9828125 31.632353,20.879332 32.1909126,21.8394668 C32.7685661,22.8324551 33.2335158,23.876877 33.5817941,24.9541523 Z M60.5181278,35.0796797 C60.3413229,47.3238281 49.2882908,60.5390625 31.7396014,60.5390625 C23.5934348,60.5390625 15.7459518,57.1048242 10.2092069,51.1168711 C4.5711649,45.0194062 1.86788538,37.030834 2.5969265,28.622918 C3.84906702,14.1971484 16.6309681,2.4609375 31.0899117,2.4609375 L31.1455817,2.4609375 C32.3317614,2.46339844 33.231408,2.91473437 33.6136587,3.6994043 C33.9651606,4.42070508 33.8124092,5.30762695 33.2048749,6.07199414 C30.9702647,8.88361523 30.4098453,12.3416016 31.6724007,15.2571973 C31.0077086,15.6822012 30.3544233,16.1090508 29.7232076,16.5324551 C29.7202319,16.5344238 29.7172562,16.5363926 29.7144045,16.5383613 C25.7717551,19.1785781 22.4424673,21.8047676 20.227323,24.0148125 C18.5473048,23.4449824 16.7013925,23.6110957 15.1324662,24.5098301 C12.5565209,25.9865156 9.17416688,32.8679121 8.5223694,34.2323789 C8.34779629,34.597582 8.3652784,35.0246777 8.56886437,35.3747461 C8.77257433,35.7248145 9.13647496,35.9533125 9.54240704,35.986043 C10.2276809,36.041168 12.1736504,36.180457 14.339572,36.180457 C16.9678396,36.180457 19.9197123,35.9752148 21.3319195,35.1656895 C22.861666,34.2893496 23.9219992,32.8250918 24.2892475,31.1418105 C27.3297705,30.3497578 31.3024247,28.8002285 35.6050072,26.719875 C38.0156784,25.5554824 40.4949142,24.2451562 42.9741499,22.8251953 C44.2317458,22.1043867 45.4750833,21.3613066 46.6834566,20.6118281 C46.6907718,20.6121973 46.697839,20.6133047 46.7051542,20.6135508 C57.0393121,20.9076328 60.6164491,28.279125 60.5181278,35.0796797 Z M21.945901,30.0689648 C21.8665496,31.3064473 21.1737126,32.4148535 20.0920536,33.0345176 C18.9195125,33.7067227 14.8914363,33.7972852 11.5840941,33.647168 C13.1060295,30.7304648 15.198799,27.3139453 16.3725801,26.641125 C17.4807722,26.0062031 18.8205712,25.9783945 19.9572802,26.5669277 C20.5820486,26.8898027 21.0993206,27.3823594 21.4534263,27.9915645 C21.8217905,28.6252559 21.9920241,29.3436035 21.945901,30.0689648 Z" id="Shape" fill-rule="nonzero"></path>
                <path d="M22,8 C19.243,8 17,10.243 17,13 C17,15.757 19.243,18 22,18 C24.757,18 27,15.757 27,13 C27,10.243 24.757,8 22,8 Z M22,15.5 C20.6215,15.5 19.5,14.3785 19.5,13 C19.5,11.6215 20.6215,10.5 22,10.5 C23.3785,10.5 24.5,11.6215 24.5,13 C24.5,14.3785 23.3785,15.5 22,15.5 Z" id="Shape" fill-rule="nonzero"></path>
                <path d="M16,41 C13.243,41 11,43.243 11,46 C11,48.757 13.243,51 16,51 C18.757,51 21,48.757 21,46 C21,43.243 18.757,41 16,41 Z M16,48.5 C14.6215,48.5 13.5,47.3785 13.5,46 C13.5,44.6215 14.6215,43.5 16,43.5 C17.3785,43.5 18.5,44.6215 18.5,46 C18.5,47.3785 17.3785,48.5 16,48.5 Z" id="Shape" fill-rule="nonzero"></path>
                <path d="M28,48 C25.243,48 23,50.243 23,53 C23,55.757 25.243,58 28,58 C30.757,58 33,55.757 33,53 C33,50.243 30.757,48 28,48 Z M28,55.5 C26.6215,55.5 25.5,54.3785 25.5,53 C25.5,51.6215 26.6215,50.5 28,50.5 C29.3785,50.5 30.5,51.6215 30.5,53 C30.5,54.3785 29.3785,55.5 28,55.5 Z" id="Shape" fill-rule="nonzero"></path>
                <path d="M43,46 C40.243,46 38,48.243 38,51 C38,53.757 40.243,56 43,56 C45.757,56 48,53.757 48,51 C48,48.243 45.757,46 43,46 Z M43,53.5 C41.6215,53.5 40.5,52.3785 40.5,51 C40.5,49.6215 41.6215,48.5 43,48.5 C44.3785,48.5 45.5,49.6215 45.5,51 C45.5,52.3785 44.3785,53.5 43,53.5 Z" id="Shape" fill-rule="nonzero"></path>
                <path d="M53,33 C50.243,33 48,35.243 48,38 C48,40.757 50.243,43 53,43 C55.757,43 58,40.757 58,38 C58,35.243 55.757,33 53,33 Z M53,40.5 C51.6215,40.5 50.5,39.3785 50.5,38 C50.5,36.6215 51.6215,35.5 53,35.5 C54.3785,35.5 55.5,36.6215 55.5,38 C55.5,39.3785 54.3785,40.5 53,40.5 Z" id="Shape" fill-rule="nonzero"></path>
            </g>
        </g>
    </g>
</svg>