<?xml version="1.0" encoding="UTF-8"?>
<svg width="102px" height="93px" viewBox="0 0 102 93" version="1.1" xmlns="http://www.w3.org/2000/svg" xmlns:xlink="http://www.w3.org/1999/xlink">
    <!-- Generator: Sketch 52.6 (67491) - http://www.bohemiancoding.com/sketch -->
    <title>complete</title>
    <desc>Created with Sketch.</desc>
    <g id="Page-1" stroke="none" stroke-width="1" fill="none" fill-rule="evenodd">
        <g id="complete" fill="#FFFFFF">
            <path d="M0.815397703,18 L7.23904721,18 C7.70225436,18 8.06975755,17.6351603 8.06975755,17.1735264 C8.08507018,12.1662875 12.1582305,8.08231644 17.1692897,8.07487073 C17.6324968,8.07487073 18,7.71003102 18,7.2483971 L18,0.830196484 C17.9961718,0.372285419 17.6286687,0 17.1654615,0 C7.70225436,0 0,7.71003102 0,17.1735264 C0,17.6351603 0.359846874,18 0.815397703,18 Z" id="Path"></path>
            <path d="M1.01043643,37 L8.97058824,37 C9.54459203,37 10,36.605336 10,36.1099924 L10,21.8940347 C10,21.4067455 9.54459203,21 8.97058824,21 L1.01043643,21 C0.445920304,21 0,21.4027183 0,21.8940347 L0,36.1099924 C0,36.605336 0.445920304,37 1.01043643,37 Z" id="Path"></path>
            <path d="M1.01043643,55 L8.97058824,55 C9.54459203,55 10,54.6093632 10,54.1099924 L10,39.8980619 C10,39.4107727 9.54459203,39 8.97058824,39 L1.01043643,39 C0.445920304,39 0,39.4107727 0,39.8980619 L0,54.1099924 C0,54.6093632 0.445920304,55 1.01043643,55 Z" id="Path"></path>
            <path d="M1.01043643,72 L8.97058824,72 C9.54459203,72 10,71.6129032 10,71.108871 L10,56.891129 C10,56.4112903 9.54459203,56 8.97058824,56 L1.01043643,56 C0.445920304,56 0,56.4112903 0,56.891129 L0,71.108871 C0,71.6129032 0.445920304,72 1.01043643,72 Z" id="Path"></path>
            <path d="M89.664,37.402 C90.14,37.402 90.516,37.01 90.516,36.518 L90.516,34.598 L87.484,37.398 L89.664,37.398 L89.664,37.402 Z" id="Path"></path>
            <path d="M89.9848197,39 L85.6679317,39 L81,43.1278631 L81,54.1099924 C81,54.6093632 81.4648956,55 82.0199241,55 L89.9895636,55 C90.5540797,55 91,54.6093632 91,54.1099924 L91,39.8980619 C90.9952562,39.4107727 90.5540797,39 89.9848197,39 Z" id="Path"></path>
            <path d="M89.9791073,56 L82.0303894,56 C81.4558405,56 81,56.4112903 81,56.891129 L81,71.108871 C81,71.6129032 81.4558405,72 82.0303894,72 L89.9791073,72 C90.5441595,72 91,71.6129032 91,71.108871 L91,56.891129 C91,56.4112903 90.5489079,56 89.9791073,56 Z" id="Path"></path>
            <path d="M67.2141749,83 L54.7858251,83 C54.3621314,83 54,83.461042 54,84.0189027 L54,91.9718764 C54,92.5481789 54.3621314,93 54.7858251,93 L67.2141749,93 C67.6523539,93 68,92.5481789 68,91.9718764 L68,84.0189027 C68,83.461042 67.6523539,83 67.2141749,83 Z" id="Path"></path>
            <path d="M51.2137681,83 L38.7789855,83 C38.3550725,83 38,83.461042 38,84.0189027 L38,91.9718764 C38,92.5481789 38.3550725,93 38.7789855,93 L51.2137681,93 C51.6521739,93 52,92.5481789 52,91.9718764 L52,84.0189027 C51.9963768,83.461042 51.6521739,83 51.2137681,83 Z" id="Path"></path>
            <path d="M33.2101449,83 L20.7789855,83 C20.3550725,83 20,83.461042 20,84.0189027 L20,91.9718764 C20,92.5481789 20.3550725,93 20.7789855,93 L33.2137681,93 C33.6594203,93 34,92.5481789 34,91.9718764 L34,84.0189027 C33.9963768,83.461042 33.6557971,83 33.2101449,83 Z" id="Path"></path>
            <path d="M54.7858251,10 L67.2141749,10 C67.6523539,10 68,9.54817888 68,8.97648686 L68,1.02812356 C68,0.461041955 67.6523539,0 67.2141749,0 L54.7858251,0 C54.3621314,0 54,0.461041955 54,1.02812356 L54,8.98109728 C54,9.54817888 54.3621314,10 54.7858251,10 Z" id="Path"></path>
            <path d="M38.7789855,10 L51.2137681,10 C51.6521739,10 52,9.54817888 52,8.97648686 L52,1.02812356 C51.9963768,0.461041955 51.6521739,0 51.2137681,0 L38.7789855,0 C38.3550725,0 38,0.461041955 38,1.02812356 L38,8.98109728 C38,9.54817888 38.3550725,10 38.7789855,10 Z" id="Path"></path>
            <path d="M20.7789855,10 L33.2137681,10 C33.6594203,10 34,9.54817888 34,8.97648686 L34,1.02812356 C33.9963768,0.461041955 33.6557971,0 33.2101449,0 L20.7789855,0 C20.3514493,0 20,0.461041955 20,1.02812356 L20,8.98109728 C20,9.54817888 20.3514493,10 20.7789855,10 Z" id="Path"></path>
            <path d="M17.169113,84.9225639 C12.1569879,84.9001991 8.08296107,80.8297975 8.06764518,75.8163451 C8.06764518,75.3653207 7.70006382,75.0000283 7.23675814,75.0000283 L0.815571155,75.0000283 C0.359923421,74.9963008 0,75.3615932 0,75.8126176 C0,85.2990388 7.70389279,93 17.169113,93 C17.6324186,93 18,92.6347076 18,92.1687733 L18,85.7500632 C18,85.2990388 17.6324186,84.9225639 17.169113,84.9225639 Z" id="Path"></path>
            <path d="M90.1802511,75 L83.7678229,75 C83.3043201,75 82.9365823,75.3651418 82.9365823,75.8159801 C82.9212598,80.8310909 78.8378378,84.8998137 73.8235795,84.9184434 C73.375399,84.9184434 73,85.2984889 73,85.7493273 L73,92.1691161 C73,92.6348582 73.375399,93 73.8235795,93 C83.3043201,93 91,85.3022149 91,75.8197061 C91,75.3651418 90.643754,75 90.1802511,75 Z" id="Path"></path>
            <path d="M72.8675914,8.43734371 C78.1094578,8.44512365 78.8559899,9.16865796 81.5596469,14 L88,8.16504585 C85.7321564,1.85940539 80.3611602,0 72.8675914,0 C72.3954603,0 72,0.388996944 72,0.867463184 L72,7.57766046 C72,8.0561267 72.3954603,8.43734371 72.8675914,8.43734371 Z" id="Path"></path>
            <path d="M101.049953,17.7298793 L94.1432611,10.9347071 C92.8765316,9.68843097 90.8143261,9.68843097 89.5475966,10.9347071 L48.1526861,51.6649397 L28.4618285,32.1547836 C27.1800189,30.9047984 25.1253534,30.9047984 23.8510839,32.1547836 L16.9557022,38.9388284 C15.6814326,40.1888137 15.6814326,42.2214307 16.9557022,43.4677068 L38.8557964,65.1736827 L38.931197,65.2738298 L43.6965127,69.9696203 L44.8086711,71.063821 L45.8303487,72.0652929 C47.0970782,73.311569 49.1592837,73.311569 50.4335533,72.0652929 L101.049953,22.2587577 C102.316682,21.0124816 102.316682,18.9724463 101.049953,17.7298793 Z" id="Path"></path>
        </g>
    </g>
</svg>