<?xml version="1.0" encoding="UTF-8"?>
<svg width="208px" height="289px" viewBox="0 0 208 289" version="1.1" xmlns="http://www.w3.org/2000/svg" xmlns:xlink="http://www.w3.org/1999/xlink">
    <!-- Generator: Sketch 52.6 (67491) - http://www.bohemiancoding.com/sketch -->
    <title>compass</title>
    <desc>Created with Sketch.</desc>
    <g id="Page-1" stroke="none" stroke-width="1" fill="none" fill-rule="evenodd">
        <g id="compass" fill="#FFFFFF" fill-rule="nonzero">
            <path d="M104,0 C46.6540903,0 0,46.952397 0,104.664413 C0,176.286828 93.0698118,281.43272 97.0323416,285.873843 C100.754259,290.045721 107.252471,290.038382 110.967658,285.873843 C114.930188,281.43272 208,176.286828 208,104.664413 C207.998878,46.952397 161.345349,0 104,0 Z M104,265.140325 C72.677226,227.695588 18.7284915,153.820437 18.7284915,104.665542 C18.7284915,57.3451206 56.9807849,18.8482417 104,18.8482417 C151.019215,18.8482417 189.271509,57.3451206 189.271509,104.664977 C189.270947,153.822131 135.330626,227.683734 104,265.140325 Z" id="Shape"></path>
            <path d="M101.500287,48 C71.999775,48 48,71.9999625 48,101.5 C48,131.000038 72.0003484,155 101.500287,155 C131.000225,155 155,131.000038 155,101.5 C155,71.9999625 131.000225,48 101.500287,48 Z M101.500287,135.850953 C82.5585289,135.850953 67.1493544,120.441453 67.1493544,101.5 C67.1493544,82.5585468 82.5591024,67.1490466 101.500287,67.1490466 C120.441472,67.1490466 135.851219,82.5585468 135.851219,101.5 C135.851219,120.441453 120.441472,135.850953 101.500287,135.850953 Z" id="Shape"></path>
        </g>
    </g>
</svg>