<?xml version="1.0" encoding="UTF-8"?>
<svg width="512px" height="512px" viewBox="0 0 512 512" version="1.1" xmlns="http://www.w3.org/2000/svg" xmlns:xlink="http://www.w3.org/1999/xlink">
    <!-- Generator: Sketch 52.6 (67491) - http://www.bohemiancoding.com/sketch -->
    <title>Path</title>
    <desc>Created with Sketch.</desc>
    <g id="Page-1" stroke="none" stroke-width="1" fill="none" fill-rule="evenodd">
        <g id="filter" fill="#61D4B3">
            <path d="M474.667969,0 L37.332031,0 C16.746094,0 2.84217094e-14,16.746094 2.84217094e-14,37.332031 L2.84217094e-14,86.71875 C2.84217094e-14,97.128906 4.394531,107.15625 12.097656,114.261719 L183.339844,271.125 C188.863281,276.136719 192,283.308594 192,290.773438 L192,496 C192,501.886719 195.242188,507.328125 200.449219,510.101562 C202.816406,511.382812 205.417969,512 208,512 C211.113281,512 214.207031,511.105469 216.875,509.3125 L303.382812,451.648438 C313.792969,444.714844 320,433.089844 320,420.585938 L320,290.773438 C320,283.308594 323.136719,276.136719 328.660156,271.105469 L499.902344,114.21875 C507.605469,107.15625 512,97.128906 512,86.71875 L512,37.332031 C512,16.746094 495.253906,-2.84217094e-14 474.667969,0 Z" id="Path"></path>
        </g>
    </g>
</svg>