<?xml version="1.0" encoding="UTF-8"?>
<svg width="100px" height="100px" viewBox="0 0 100 100" version="1.1" xmlns="http://www.w3.org/2000/svg" xmlns:xlink="http://www.w3.org/1999/xlink">
    <!-- Generator: Sketch 52.6 (67491) - http://www.bohemiancoding.com/sketch -->
    <title>FOOD</title>
    <desc>Created with Sketch.</desc>
    <g id="Page-1" stroke="none" stroke-width="1" fill="none" fill-rule="evenodd">
        <g id="FOOD">
            <rect id="Rectangle" stroke="#6700F9" stroke-width="2" fill="#FFFFFF" x="1" y="1" width="98" height="98" rx="49"></rect>
            <g id="fork" transform="translate(15.000000, 14.000000)" fill="#6700F9">
                <path d="M49.7028764,26.9115806 L53.6625149,26.6615052 C53.6691991,26.6609928 53.6763976,26.6604804 53.6835959,26.659968 C56.5053719,26.4227038 59.0381832,24.9494112 60.6331447,22.6167406 L63.7634238,18.0395409 C66.4880212,14.0547328 67.5436163,9.24180623 66.7348238,4.48781139 C66.5759447,3.55412829 66.0967364,2.69372539 65.3861506,2.06597467 C64.6750508,1.43771141 63.7608529,1.0666979 62.8116915,1.02160234 C57.9774463,0.791000084 53.3113354,2.41290301 49.668941,5.58650332 L45.4846093,9.23258221 C43.352338,11.090212 42.1882526,13.7728856 42.2900588,16.5939206 C42.2905729,16.6005824 42.2905729,16.6077568 42.291087,16.614931 L42.5168086,20.5623302 C42.6047319,22.1012164 42.0386286,23.6196045 40.96658,24.7254707 L8.27655283,58.1956034 C7.40143202,59.1052015 6.9494748,60.3530163 7.00449124,61.7094704 C7.06516347,63.2027484 7.75261153,64.6693792 8.84368444,65.6332969 C9.82935212,66.5039488 11.1841954,67 12.5385245,67 C12.6835209,67 12.8285175,66.994363 12.9729998,66.9825766 C14.330928,66.8744498 15.5202079,66.2779586 16.3254012,65.29713 L45.7396387,28.9470306 C46.7150229,27.7509731 48.1598463,27.0089461 49.7028764,26.9115806 Z M44.1693573,27.6802552 L14.7576908,64.0272799 C14.3083044,64.574576 13.6172573,64.9117679 12.812064,64.975824 C11.8541615,65.0521791 10.8720931,64.7344602 10.1841309,64.1266951 C9.49616867,63.5184174 9.06220764,62.5847343 9.0236447,61.6279909 C8.9907377,60.8239575 9.24319618,60.0998663 9.72960282,59.5945909 L42.4170591,26.1270204 C43.8824494,24.6158065 44.6537074,22.5460227 44.5344195,20.4480539 L44.308698,16.5109037 C44.2320864,14.3027584 45.1447417,12.2032525 46.8142581,10.748408 L50.9985898,7.10232915 C54.2461002,4.27309497 58.4078082,2.82849967 62.7155413,3.03245454 C63.2060613,3.05602716 63.6780713,3.24768337 64.0457043,3.57257635 C64.4133372,3.89695704 64.6606539,4.34176329 64.7429214,4.82397832 C65.4637906,9.06244894 64.5228559,13.3526769 62.0939073,16.9049775 L58.9636281,21.4826897 C57.7147044,23.3090601 55.7325714,24.463609 53.5236885,24.6527028 L49.5748476,24.9017534 C47.4708557,25.0349903 45.501577,26.0465657 44.1693573,27.6802552 Z" id="Shape" fill-rule="nonzero"></path>
                <path d="M65.5579599,58.0086922 L44.3097027,38.2606718 C43.9099491,37.8888737 43.290879,37.9183734 42.9260165,38.3262831 C42.5621509,38.7341928 42.5910607,39.3664022 42.9908145,39.7382002 L64.2335887,59.4816431 C64.7390131,59.9582161 65.0256196,60.6606143 65.0410714,61.4591409 C65.0595138,62.4092351 64.6941529,63.3598377 64.0636187,64.0032365 C63.4335828,64.6461267 62.5034824,65.0199592 61.5703914,65.0006318 C60.7878311,64.9848648 60.0994772,64.6924108 59.6374176,64.1822692 L40.7034454,42.9709614 C40.3390815,42.562543 39.719513,42.5335519 39.3197592,42.9048413 C38.9200055,43.2766394 38.8910957,43.9088487 39.2554597,44.3167584 L58.1939178,65.5331524 C59.0263227,66.4517122 60.2116275,66.9725347 61.5320111,66.9989828 C61.5664038,66.9994914 61.6002983,67 61.634691,67 C63.0537669,67 64.4728429,66.4125489 65.4483019,65.4166795 C66.4481846,64.3963964 67.0278774,62.9025922 66.9989675,61.4199775 C66.9730483,60.0726546 66.4631379,58.8631665 65.5579599,58.0086922 Z" id="Path"></path>
                <path d="M12.5263865,27.2964763 C14.2446281,28.877252 16.4769683,29.7784421 18.8123396,29.8343707 C18.8197368,29.8348983 18.8271338,29.8348983 18.8340026,29.8348983 L22.9108634,29.8475614 C24.500184,29.85231 26.027686,30.5260921 27.0997376,31.6926792 L28.8956488,33.6612623 C29.1006542,33.8860322 29.3812158,34 29.6633626,34 C29.9127506,34 30.1631954,33.9108308 30.3618604,33.7298541 C30.7861372,33.3441574 30.8167823,32.6883148 30.4305478,32.2651565 L28.631995,30.2939354 C27.1673683,28.6994411 25.0845553,27.781367 22.9177323,27.7739803 L18.851967,27.7613172 C17.0454885,27.7154135 15.3182648,27.0247474 13.9799174,25.8148947 L2.16515752,11.7894662 C2.04469054,11.6459511 2.0536727,11.4380654 2.18629211,11.3056306 C2.27717095,11.2143508 2.38390052,11.20116 2.43937876,11.20116 C2.49485701,11.20116 2.60158671,11.2143508 2.69299375,11.3056306 L13.447326,22.0455146 C14.5103955,23.1071036 16.2402609,23.1071036 17.3033304,22.0449869 L18.5671784,20.7834265 L18.5671784,20.7828988 L20.8111427,18.5420594 C20.8111427,18.5420594 20.8116711,18.5420594 20.8116711,18.5415317 C20.8116711,18.5415317 20.8121995,18.5410041 20.8121995,18.5410041 L22.0755191,17.2794437 C23.1385886,16.2178545 23.1385886,14.490398 22.0755191,13.4288088 L11.321187,2.68945242 C11.1816988,2.55015842 11.1816988,2.32275038 11.321187,2.18345638 C11.4538065,2.05102166 11.6619821,2.042052 11.8056973,2.16235123 L25.8506839,13.9611862 C27.0627522,15.2971423 27.7543813,17.0224885 27.8003491,18.8259237 L27.8125015,22.8865548 C27.8198985,25.0498328 28.7397812,27.1297455 30.3386124,28.5954983 L32.2629162,30.3456429 C32.6871928,30.7313396 33.3434217,30.7007371 33.7296562,30.2775789 C34.1153622,29.8538929 34.0847172,29.198578 33.6609687,28.8128814 L31.7398352,27.0653748 C30.568451,25.9921779 29.8942578,24.4662753 29.8889741,22.8796957 L29.8762934,18.8085119 C29.8762934,18.8011251 29.8762934,18.7937383 29.8757651,18.7863515 C29.8197585,16.4542322 28.9173117,14.2250006 27.3343316,12.5091518 C27.3047432,12.4769665 27.2730412,12.446364 27.2392259,12.4178721 L13.1419312,0.575771565 C12.167627,-0.243108313 10.7537234,-0.181903374 9.8533902,0.71717608 C8.90391913,1.66532498 8.90391913,3.20758396 9.8533902,4.15520526 L20.6077224,14.8950893 C20.8613374,15.1483511 20.8613374,15.5604291 20.6077224,15.813691 L20.0777727,16.3423749 L8.09182284,4.37364351 C7.68656719,3.9684246 7.02928169,3.9684246 6.62402604,4.37364351 C6.21877039,4.77833482 6.21877039,5.43470504 6.62402604,5.83939635 L18.6099761,17.8086554 L17.8332801,18.583742 L5.84733021,6.6150106 C5.44207456,6.21031929 4.78478906,6.21031929 4.37953341,6.6150106 C3.97374943,7.01970191 3.97374943,7.67607213 4.37953341,8.08076344 L16.364955,20.0500225 L15.8355338,20.5792342 C15.5819188,20.832496 15.1692661,20.832496 14.9156511,20.5792342 L4.16079055,9.83987775 C3.70111332,9.38084077 3.08979556,9.12757895 2.43937876,9.12757895 C1.78896196,9.12757895 1.1776442,9.38084077 0.717967109,9.83987775 C-0.182366093,10.7389572 -0.243128051,12.1508918 0.576365408,13.1243669 L12.4355078,27.201503 C12.4635111,27.2352712 12.4941563,27.2669291 12.5263865,27.2964763 Z" id="Path"></path>
            </g>
        </g>
    </g>
</svg>