<?xml version="1.0" encoding="UTF-8"?>
<svg width="166px" height="102px" viewBox="0 0 166 102" version="1.1" xmlns="http://www.w3.org/2000/svg" xmlns:xlink="http://www.w3.org/1999/xlink">
    <!-- Generator: Sketch 52.6 (67491) - http://www.bohemiancoding.com/sketch -->
    <title>Friends</title>
    <desc>Created with Sketch.</desc>
    <g id="Page-1" stroke="none" stroke-width="1" fill="none" fill-rule="evenodd">
        <g id="Friends" fill="#FFFFFF" fill-rule="nonzero">
            <path d="M143.56668,44.8812714 C148.42778,41.5755687 151.646617,36.0766594 151.646617,29.8784668 C151.646617,19.7388595 143.172537,11.5381739 132.694895,11.5381739 C122.217254,11.5381739 113.743174,19.7388595 113.743174,29.8784668 C113.743174,36.0766594 116.929165,41.5755687 121.82311,44.8812714 C117.651761,46.279838 113.84171,48.441259 110.622873,51.238392 C106.188761,47.5830477 100.966363,44.7859146 95.2512862,43.1330633 C102.181638,39.0645061 106.845667,31.6584606 106.845667,23.2352758 C106.845667,10.3938922 96.105263,0 82.8357735,0 C69.566284,0 58.8258805,10.4256778 58.8258805,23.2352758 C58.8258805,31.6584606 63.4570636,39.0645061 70.4202614,43.1330633 C64.7708744,44.7859146 59.6141669,47.5512621 55.2129007,51.1430352 C51.9940641,48.4094734 48.2497032,46.279838 44.1440443,44.913057 C49.0051444,41.6073543 52.223981,36.108445 52.223981,29.9102524 C52.223981,19.7706451 43.7499011,11.5699595 33.2722596,11.5699595 C22.7946181,11.5699595 14.3205382,19.7706451 14.3205382,29.9102524 C14.3205382,36.108445 17.5065295,41.6073543 22.4004749,44.913057 C9.36090225,49.2676846 0,61.2508572 0,75.3318794 L0,77.4297289 C0,77.4933002 0.0656905422,77.5568714 0.131381084,77.5568714 L40.3011476,77.5568714 C40.0712307,79.3050795 39.9398496,81.1168587 39.9398496,82.928638 L39.9398496,85.0900594 C39.9398496,94.4350267 47.7570241,102 57.4135338,102 L108.323704,102 C117.980213,102 125.797388,94.4350267 125.797388,85.0900594 L125.797388,82.928638 C125.797388,81.1168587 125.666007,79.3050795 125.43609,77.5568714 L165.868619,77.5568714 C165.93431,77.5568714 166,77.4933002 166,77.4297289 L166,75.3318794 C165.93431,61.2190713 156.606252,49.235899 143.56668,44.8812714 Z M118.998417,29.8466812 C118.998417,22.5359925 125.140483,16.5920848 132.694895,16.5920848 C140.249307,16.5920848 146.391373,22.5359925 146.391373,29.8466812 C146.391373,37.0620131 140.380689,42.9423496 132.957657,43.1012777 C132.859122,43.1012777 132.793431,43.1012777 132.694895,43.1012777 C132.596359,43.1012777 132.530669,43.1012777 132.432133,43.1012777 C124.976257,42.9741353 118.998417,37.0937987 118.998417,29.8466812 Z M64.0154336,23.2352758 C64.0154336,13.2228109 72.4238225,5.08569648 82.770083,5.08569648 C93.1163436,5.08569648 101.524733,13.2228109 101.524733,23.2352758 C101.524733,32.8980991 93.674713,40.8127142 83.8539768,41.3530695 C83.4926789,41.3530695 83.131381,41.3530695 82.770083,41.3530695 C82.4087851,41.3530695 82.0474872,41.3530695 81.6861893,41.3530695 C71.8654531,40.8127142 64.0154336,32.8980991 64.0154336,23.2352758 Z M19.4772458,29.8466812 C19.4772458,22.5359925 25.6193114,16.5920848 33.1737238,16.5920848 C40.7281361,16.5920848 46.8702018,22.5359925 46.8702018,29.8466812 C46.8702018,37.0620131 40.8595172,42.9423496 33.436486,43.1012777 C33.3379501,43.1012777 33.2722596,43.1012777 33.1737238,43.1012777 C33.075188,43.1012777 33.0094974,43.1012777 32.9109616,43.1012777 C25.4879303,42.9741353 19.4772458,37.0937987 19.4772458,29.8466812 Z M41.2208152,72.4393891 L5.32093391,72.4393891 C6.79897113,58.8987222 18.6232687,48.282331 32.9766521,48.1869742 C33.0423427,48.1869742 33.1080332,48.1869742 33.1737238,48.1869742 C33.2394143,48.1869742 33.3051049,48.1869742 33.3707954,48.1869742 C40.2026118,48.2187597 46.4432133,50.6662512 51.2714681,54.6394518 C46.5417491,59.5980057 43.0273051,65.7008413 41.2208152,72.4393891 Z M120.476455,85.0900594 C120.476455,91.6061077 114.991294,96.9143036 108.258013,96.9143036 L57.3478433,96.9143036 C50.6145627,96.9143036 45.1294025,91.6061077 45.1294025,85.0900594 L45.1294025,82.928638 C45.1294025,63.189779 61.420657,47.0426924 81.6861893,46.4705515 C82.0474872,46.5023372 82.4416306,46.5023372 82.8029285,46.5023372 C83.1642265,46.5023372 83.5583694,46.5023372 83.9196678,46.4705515 C104.1852,47.0426924 120.476455,63.189779 120.476455,82.928638 L120.476455,85.0900594 Z M124.385042,72.4393891 C122.578552,65.7326271 119.129798,59.7251482 114.432925,54.7665937 C119.294025,50.6980368 125.600317,48.2505453 132.497823,48.1869742 C132.563514,48.1869742 132.629205,48.1869742 132.694895,48.1869742 C132.760586,48.1869742 132.826276,48.1869742 132.891967,48.1869742 C147.24535,48.282331 159.069648,58.8987222 160.547685,72.4393891 L124.385042,72.4393891 Z" id="Shape"></path>
        </g>
    </g>
</svg>