<?xml version="1.0" encoding="UTF-8"?>
<svg width="413px" height="413px" viewBox="0 0 413 413" version="1.1" xmlns="http://www.w3.org/2000/svg" xmlns:xlink="http://www.w3.org/1999/xlink">
    <!-- Generator: Sketch 52.6 (67491) - http://www.bohemiancoding.com/sketch -->
    <title>home</title>
    <desc>Created with Sketch.</desc>
    <g id="Page-1" stroke="none" stroke-width="1" fill="none" fill-rule="evenodd">
        <g id="home" fill="#FFFFFF" fill-rule="nonzero">
            <path d="M401.877237,179.603576 L233.388914,11.1385729 C226.207195,3.95442983 216.658883,0 206.502376,0 C196.345872,0 186.79756,3.95442983 179.61269,11.1385729 L11.2126014,179.518502 C11.1558784,179.575219 11.0960043,179.635087 11.0424331,179.691803 C-3.70545553,194.523277 -3.68024548,218.587006 11.1149122,233.380669 C17.8743609,240.142586 26.7987244,244.056053 36.3438854,244.468826 C36.7346414,244.506638 37.1253974,244.525543 37.5193046,244.525543 L44.231485,244.525543 L44.231485,368.502427 C44.231485,393.038795 64.1978573,413 88.7367054,413 L154.654725,413 C161.338544,413 166.755557,407.580383 166.755557,400.900391 L166.755557,303.700195 C166.755557,292.504906 175.865845,283.39869 187.062265,283.39869 L225.94249,283.39869 C237.138911,283.39869 246.246046,292.504906 246.246046,303.700195 L246.246046,400.900391 C246.246046,407.580383 251.663059,413 258.346879,413 L324.264899,413 C348.806897,413 368.77012,393.038795 368.77012,368.502427 L368.77012,244.525543 L374.997005,244.525543 C385.150359,244.525543 394.698671,240.571113 401.886691,233.38382 C416.697605,218.568101 416.703908,194.460258 401.908751,179.635085 C401.896146,179.625634 401.886691,179.613029 401.877237,179.603576 Z M384.772207,216.274216 C382.159815,218.886345 378.687127,220.326325 374.997005,220.326325 L356.669287,220.326325 C349.985468,220.326325 344.568455,225.74279 344.568455,232.425934 L344.568455,368.502427 C344.568455,379.694565 335.461318,388.800781 324.264899,388.800781 L270.44771,388.800781 L270.44771,303.700195 C270.44771,279.163826 250.48449,259.199471 225.94249,259.199471 L187.062265,259.199471 C162.520266,259.199471 142.553893,279.163826 142.553893,303.700195 L142.553893,388.800781 L88.7367054,388.800781 C77.5434362,388.800781 68.4331484,379.694565 68.4331484,368.502427 L68.4331484,232.425934 C68.4331484,225.74279 63.0161353,220.326325 56.3323167,220.326325 L38.3197246,220.326325 C38.130649,220.313721 37.9447245,220.304267 37.752498,220.301118 C34.1474587,220.238097 30.7661587,218.80757 28.232547,216.271064 C22.8438951,210.882957 22.8438951,202.113892 28.232547,196.722633 C28.2356982,196.722633 28.2356982,196.719482 28.2388492,196.716331 L28.2483031,196.706879 L196.730325,28.2481764 C199.339568,25.6360473 202.809103,24.1992188 206.502377,24.1992188 C210.192501,24.1992188 213.662036,25.6360473 216.27443,28.2481764 L384.718636,196.672218 C384.743846,196.697426 384.772207,196.722633 384.797417,196.747841 C390.157708,202.1454 390.148254,210.895561 384.772207,216.274216 Z" id="Shape"></path>
        </g>
    </g>
</svg>