<?xml version="1.0" encoding="UTF-8"?>
<svg width="274px" height="274px" viewBox="0 0 274 274" version="1.1" xmlns="http://www.w3.org/2000/svg" xmlns:xlink="http://www.w3.org/1999/xlink">
    <!-- Generator: Sketch 52.6 (67491) - http://www.bohemiancoding.com/sketch -->
    <title>out</title>
    <desc>Created with Sketch.</desc>
    <g id="Page-1" stroke="none" stroke-width="1" fill="none" fill-rule="evenodd">
        <g id="out" fill="#6700F9">
            <path d="M261.642203,0 L162.785136,0 C155.960578,0 150.42787,5.53272072 150.42787,12.3572946 C150.42787,19.1818684 155.960578,24.7145891 162.785136,24.7145891 L231.80965,24.7145891 L104.61949,151.905573 C99.7935033,156.731571 99.7935033,164.554902 104.61949,169.3809 C107.031687,171.793633 110.194145,173 113.356602,173 C116.51906,173 119.682049,171.794164 122.094777,169.380369 L249.285468,42.1899158 L249.285468,111.214589 C249.285468,118.039163 254.818176,123.571884 261.642734,123.571884 C268.467292,123.571884 274,118.039163 274,111.214589 L274,12.3572946 C273.999469,5.53272072 268.466761,0 261.642203,0 Z" id="Path"></path>
            <path d="M218.165993,119.999816 C211.078449,119.999816 205.332537,125.745742 205.332537,132.833303 L205.332537,248.333578 L25.6663603,248.333578 L25.6663603,68.6664216 L141.16636,68.6664216 C148.253904,68.6664216 153.999816,62.9204959 153.999816,55.8329351 C153.999816,48.7453743 148.253904,43 141.16636,43 L12.8334559,43 C5.74591201,43 0,48.7459257 0,55.8334865 L0,261.167065 C0,268.254074 5.74591201,274 12.8334559,274 L218.166544,274 C225.254088,274 231,268.254074 231,261.166513 L231,132.833303 C230.999449,125.745742 225.253537,119.999816 218.165993,119.999816 Z" id="Path"></path>
        </g>
    </g>
</svg>