<?xml version="1.0" encoding="UTF-8"?>
<svg width="100px" height="100px" viewBox="0 0 100 100" version="1.1" xmlns="http://www.w3.org/2000/svg" xmlns:xlink="http://www.w3.org/1999/xlink">
    <!-- Generator: Sketch 52.6 (67491) - http://www.bohemiancoding.com/sketch -->
    <title>MONUMENT</title>
    <desc>Created with Sketch.</desc>
    <g id="Page-1" stroke="none" stroke-width="1" fill="none" fill-rule="evenodd">
        <g id="MONUMENT">
            <rect id="Rectangle" stroke="#6700F9" stroke-width="2" fill="#FFFFFF" x="1" y="1" width="98" height="98" rx="49"></rect>
            <g id="parliament" transform="translate(15.000000, 8.000000)" fill="#6700F9" fill-rule="nonzero">
                <path d="M66.4998728,62.3349325 L66.4998728,61.1741106 C66.4901658,59.7069286 65.5569308,58.4032656 64.1665119,57.914749 L64.1665119,56.5306869 C64.1620002,55.0596958 63.2275348,53.7507273 61.833151,53.2619387 L61.833151,35.4210868 C63.2275348,34.9324342 64.1618635,33.6234657 64.1665119,32.1523385 L64.1665119,30.1049496 L66.292472,25.8741326 L69.6579148,22.5252573 C70.1134582,22.0726551 70.1141418,21.3383159 69.659282,20.8850335 C69.5933841,20.8194627 69.5199667,20.7619181 69.440397,20.7137603 L35.607416,0.170082924 C35.2345868,-0.056694308 34.7656451,-0.056694308 34.3929527,0.170082924 L0.559835024,20.7137603 C0.00995645721,21.0467841 -0.164632039,21.7603093 0.170052877,22.3074587 C0.218450941,22.3866335 0.276282526,22.4598225 0.342180455,22.5252573 L3.70762322,25.8741326 L5.83358337,30.1049496 L5.83358337,32.1523385 C5.83809505,33.6233297 6.77256049,34.9322982 8.16694426,35.4209507 L8.16694426,53.2618026 C6.77256049,53.7504552 5.83823177,55.0594237 5.83358337,56.5305509 L5.83358337,57.914613 C4.44316442,58.4031295 3.50992943,59.7067925 3.50022248,61.1739745 L3.50022248,62.3347964 C1.56812802,62.336837 0.00230026632,63.8948932 0.000249500905,65.8173982 L0.000249500905,68.1391781 C0.000112783211,68.7801945 0.52210094,69.2998639 1.16631472,69.3 C1.16658815,69.3 1.16672487,69.3 1.16686159,69.3 L68.8332337,69.3 C69.4774474,69.300136 69.999709,68.7807386 69.9998458,68.1397222 C69.9998458,68.1395862 69.9998458,68.1393141 69.9998458,68.1391781 L69.9998458,65.8173982 C69.997795,63.8950292 68.4319672,62.3369731 66.4998728,62.3349325 Z M61.8332877,32.1523385 C61.8326041,32.7932189 61.3107527,33.3126163 60.6666756,33.3131604 L53.6667297,33.3131604 C53.0226526,33.3124803 52.5006645,32.7932189 52.5001176,32.1523385 L52.5001176,30.9915166 L61.8334244,30.9915166 L61.8334244,32.1523385 L61.8332877,32.1523385 Z M29.1669188,53.2619387 L29.1669188,35.4210868 C30.5613026,34.9324342 31.4956313,33.6234657 31.5002797,32.1523385 L31.5002797,30.9915166 L38.5002257,30.9915166 L38.5002257,32.1523385 C38.5047374,33.6233297 39.4392028,34.9322982 40.8335866,35.4209507 L40.8335866,53.2618026 C39.4392028,53.7504552 38.5048741,55.0594237 38.5002257,56.5305509 L38.5002257,57.6913728 L31.5002797,57.6913728 L31.5002797,56.5305509 C31.4956313,55.0595597 30.5611659,53.7505912 29.1669188,53.2619387 Z M9.33369306,33.3132965 C8.689616,33.3126163 8.16762785,32.7933549 8.16708098,32.1524746 L8.16708098,30.9916527 L17.5003878,30.9916527 L17.5003878,32.1524746 C17.4997042,32.7933549 16.9778528,33.3127523 16.3337757,33.3132965 L9.33369306,33.3132965 Z M15.1668902,35.6349403 L15.1668902,53.0479491 L10.5003051,53.0479491 L10.5003051,35.6349403 L15.1668902,35.6349403 Z M17.5002511,35.4210868 C17.9310486,35.268859 18.3273932,35.0337834 18.6668632,34.7291918 C19.0063332,35.0337834 19.4028145,35.268859 19.8334753,35.4209507 L19.8334753,53.2618026 C19.4026778,53.4140304 19.0063332,53.649106 18.6668632,53.9536976 C18.3273932,53.649106 17.9309118,53.4140304 17.5002511,53.2618026 L17.5002511,35.4210868 Z M19.833612,56.5305509 C19.8342956,55.8896705 20.3562837,55.3702731 21.0002241,55.369729 L28.00017,55.369729 C28.6442471,55.3704092 29.1662353,55.8896705 29.1667821,56.5305509 L29.1667821,57.6913728 L19.833612,57.6913728 L19.833612,56.5305509 Z M22.1668362,53.0479491 L22.1668362,35.6349403 L26.8334212,35.6349403 L26.8334212,53.0479491 L22.1668362,53.0479491 Z M28.00017,33.3132965 L21.0002241,33.3132965 C20.356147,33.3126163 19.8341589,32.7933549 19.833612,32.1524746 L19.833612,30.9916527 L29.1669188,30.9916527 L29.1669188,32.1524746 C29.1662353,32.7932189 28.6442471,33.3126163 28.00017,33.3132965 Z M40.8334499,56.5305509 C40.8341334,55.8896705 41.3559849,55.3702731 42.0000619,55.369729 L49.0000079,55.369729 C49.644085,55.3704092 50.1660731,55.8896705 50.16662,56.5305509 L50.16662,57.6913728 L40.8334499,57.6913728 L40.8334499,56.5305509 Z M43.166674,53.0479491 L43.166674,35.6349403 L47.8332591,35.6349403 L47.8332591,53.0479491 L43.166674,53.0479491 Z M49.0000079,33.3132965 L42.0000619,33.3132965 C41.3559849,33.3126163 40.8339967,32.7933549 40.8334499,32.1524746 L40.8334499,30.9916527 L50.1667567,30.9916527 L50.1667567,32.1524746 C50.1660731,32.7932189 49.644085,33.3126163 49.0000079,33.3132965 Z M50.16662,35.4210868 C50.5974174,35.268859 50.993762,35.0337834 51.3332321,34.7291918 C51.6727021,35.0337834 52.0691834,35.268859 52.4998442,35.4209507 L52.4998442,53.2618026 C52.0690467,53.4140304 51.6727021,53.649106 51.3332321,53.9536976 C50.993762,53.649106 50.5972807,53.4140304 50.16662,53.2618026 L50.16662,35.4210868 Z M52.4999809,56.5305509 C52.5006645,55.8896705 53.0226526,55.3702731 53.666593,55.369729 L60.6665389,55.369729 C61.310616,55.3704092 61.8326041,55.8896705 61.833151,56.5305509 L61.833151,57.6913728 L52.4998442,57.6913728 L52.4998442,56.5305509 L52.4999809,56.5305509 Z M54.8333418,53.0479491 L54.8333418,35.6349403 L59.4999268,35.6349403 L59.4999268,53.0479491 L54.8333418,53.0479491 Z M4.8401926,23.7179124 L3.04003072,21.9266852 L35.000116,2.52070307 L66.9602013,21.9266852 L65.1600394,23.7179124 L35.6119277,5.62470793 C35.2367743,5.39452972 34.7634577,5.39452972 34.3883043,5.62470793 L4.8401926,23.7179124 Z M61.2112222,24.0263131 L8.78900977,24.0263131 L35.000116,7.97655244 L61.2112222,24.0263131 Z M7.72151801,28.6697368 L6.55490592,26.3479569 L63.4454628,26.3479569 L62.2788507,28.6697368 L7.72151801,28.6697368 Z M8.16694426,56.5305509 C8.16762785,55.8896705 8.68947929,55.3702731 9.33355635,55.369729 L16.3335023,55.369729 C16.9775794,55.3704092 17.4995675,55.8896705 17.5001144,56.5305509 L17.5001144,57.6913728 L8.16694426,57.6913728 L8.16694426,56.5305509 Z M67.6664849,66.9783562 L2.33374711,66.9783562 L2.33374711,65.8175343 C2.3344307,65.1766539 2.85628214,64.6572565 3.5003592,64.6567123 L28.00017,64.6567123 C28.6445205,64.6567123 29.1667821,64.1370429 29.1667821,63.4958904 C29.1667821,62.854738 28.6443838,62.3350685 28.00017,62.3350685 L5.83372009,62.3350685 L5.83372009,61.1742466 C5.84725514,60.5209867 6.3893408,60.0017253 7.04599588,60.0134247 L62.9543728,60.0134247 C63.6108912,60.0018614 64.1531136,60.5209867 64.1666486,61.1742466 L64.1666486,62.3350685 L42.0000619,62.3350685 C41.3557114,62.3350685 40.8334499,62.854738 40.8334499,63.4958904 C40.8334499,64.1370429 41.3557114,64.6567123 42.0000619,64.6567123 L66.4998728,64.6567123 C67.1439498,64.6573925 67.665938,65.1766539 67.6664849,65.8175343 L67.6664849,66.9783562 Z" id="Shape"></path>
                <path d="M34.65,11.9 C32.1381888,11.902666 30.102666,13.9381888 30.1,16.45 C30.1,18.9628776 32.1371224,21 34.65,21 C37.1628776,21 39.2,18.9628776 39.2,16.45 C39.2,13.9371224 37.1628776,11.9 34.65,11.9 Z M34.65,18.7250667 C33.3934946,18.7250667 32.3749333,17.7065054 32.3749333,16.45 C32.3749333,15.1934946 33.3934946,14.1749333 34.65,14.1749333 C35.9058389,14.1763997 36.9236003,15.1940278 36.9250667,16.45 C36.9250667,17.7065054 35.9065054,18.7250667 34.65,18.7250667 Z" id="Shape"></path>
            </g>
        </g>
    </g>
</svg>