<?xml version="1.0" encoding="UTF-8"?>
<svg width="100px" height="100px" viewBox="0 0 100 100" version="1.1" xmlns="http://www.w3.org/2000/svg" xmlns:xlink="http://www.w3.org/1999/xlink">
    <!-- Generator: Sketch 52.6 (67491) - http://www.bohemiancoding.com/sketch -->
    <title>MUSEUM</title>
    <desc>Created with Sketch.</desc>
    <g id="Page-1" stroke="none" stroke-width="1" fill="none" fill-rule="evenodd">
        <g id="MUSEUM">
            <rect id="Rectangle" stroke="#6700F9" stroke-width="2" fill="#FFFFFF" x="1" y="1" width="98" height="98" rx="49"></rect>
            <g id="museum" transform="translate(13.000000, 19.000000)" fill="#6700F9" fill-rule="nonzero">
                <path d="M60.9984935,0.611782458 C61.0005022,0.582852444 61.0005022,0.553497126 60.9984935,0.524567221 L60.9573159,0.448838995 L60.9091081,0.37311066 L60.8473419,0.297382433 L60.8473419,0.256540215 L60.6821296,0.157412664 L60.6063028,0.10465824 L60.4963286,0.0757282264 L60.4139736,0.0348860075 L60.3175579,0 L16.5794983,0 L16.4760524,0.0348860075 L16.3936972,0.0697721239 L16.304312,0.116570445 L16.228485,0.168899565 L16.1526581,0.233140999 L16.1526581,0.273983218 L16.0908919,0.349711554 L16.0426841,0.42543978 L16.0015065,0.501168006 C15.9994978,0.53009802 15.9994978,0.559453338 16.0015065,0.588383243 C16.0015065,0.588383243 16.0015065,0.641137776 16.0015065,0.664111469 C15.9994978,0.695168546 15.9994978,0.726651144 16.0015065,0.757708221 C16.0015065,0.757708221 16.0015065,0.757708221 16.0015065,0.80408113 L16.0015065,27.167308 C16.0015065,27.167308 16.0015065,27.167308 16.0015065,27.2141064 C15.9994978,27.2451635 15.9994978,27.276646 16.0015065,27.3072777 C16.0015065,27.3072777 16.0015065,27.3600323 16.0015065,27.383006 C15.9994978,27.4123613 15.9994978,27.4412912 16.0015065,27.4706465 L16.0426841,27.5463749 L16.0908919,27.6221032 L16.1526581,27.6978314 L16.1526581,27.7386736 L16.2490738,27.8144019 L16.3108401,27.8612003 L16.4278446,27.9194855 L16.4901129,27.9484154 L16.6482949,27.9952139 L16.6894725,27.9952139 C16.7602777,28.0015954 16.8320873,28.0015954 16.9028925,27.9952139 L60.001194,27.9952139 C60.0719993,28.0015954 60.1433067,28.0015954 60.2141119,27.9952139 L60.2557916,27.9952139 L60.4139736,27.9484154 L60.4757398,27.9194855 L60.5927443,27.8612003 L60.6545106,27.8144019 L60.7509262,27.7386736 L60.7509262,27.6978314 L60.8126924,27.6221032 L60.8609003,27.5463749 L60.9020778,27.4706465 C60.9045886,27.4412912 60.9045886,27.4123613 60.9020778,27.383006 C60.9020778,27.383006 60.9020778,27.3306769 60.9020778,27.3072777 C60.9045886,27.276646 60.9045886,27.2451635 60.9020778,27.2141064 C60.9020778,27.2141064 60.9020778,27.2141064 60.9020778,27.167308 L60.9020778,0.827480345 C60.9020778,0.827480345 60.9020778,0.827480345 60.9020778,0.781107436 C60.9045886,0.750050359 60.9045886,0.718567761 60.9020778,0.687510684 C60.9020778,0.687510684 61.0055237,0.635181564 60.9984935,0.611782458 Z M57.1930879,1.70218453 L54.9293286,3.32864084 L22.0224636,3.32864084 L19.7587043,1.70218453 L57.1930879,1.70218453 Z M58.968743,25.2787808 L56.3675288,23.3838721 L56.3675288,4.6113418 L58.9963621,2.72238918 L58.968743,25.2787808 Z M48.5573584,16.1020448 C47.7518859,18.0671512 46.9951234,19.9207923 45.0542561,20.3581443 C41.7033099,21.145208 40.0998973,20.56193 37.1958778,19.5536377 C35.6215909,18.9843993 34.0141611,18.4840821 32.3791122,18.0552388 C28.07807,16.959306 24.713063,19.1047987 22.6486631,21.2966644 L22.6486631,5.0776238 L54.3031291,5.0776238 L54.3031291,10.6921525 C50.6559055,10.9835788 49.4858612,13.8050954 48.5573584,16.1020448 Z M54.3031291,12.4526224 L54.3031291,22.8941908 L23.8528545,22.8941908 C25.1534617,21.2558222 27.8852387,18.7138196 31.7599428,19.7050943 C33.3382471,20.1173455 34.8914432,20.597667 36.4114962,21.145208 C39.3978708,22.1828555 41.5586864,22.9350331 45.577512,22.031399 C48.5779471,21.3549498 49.5963375,18.8597454 50.5047537,16.6559674 C51.4884948,14.2658467 52.2387292,12.7091625 54.3031291,12.4526224 Z M18.0106683,25.2787808 L18.0106683,2.71643297 L20.5842633,4.6113418 L20.5842633,23.3838721 L18.0106683,25.2787808 Z M19.7858211,26.2930292 L22.0224636,24.6431738 L54.9293286,24.6431738 L57.1935901,26.2696301 L19.7858211,26.2930292 Z" id="Shape"></path>
                <path d="M1.03982112,60.9754745 L74.9606846,60.9754745 C75.5342047,60.9754745 76,60.5647844 76,60.0591138 C76,59.5529973 75.5342047,59.1423072 74.9606846,59.1423072 L69.9911893,59.1423072 L69.9911893,37.7552069 C72.1274755,36.2685176 72.4926267,33.5363803 70.8064577,31.6532704 C69.1202885,29.7697144 66.021561,29.4477618 63.8857805,30.9344512 C61.7494943,32.4211404 61.384343,35.1532777 63.0705122,37.0368336 C63.3097317,37.3034923 63.5828365,37.5442879 63.8857805,37.7552069 L63.8857805,40.5109777 C56.5782049,43.3991861 48.2009688,43.3122321 40.9733018,40.2728577 L40.9733018,37.7797324 C43.1090823,36.2930431 43.4747391,33.5609058 41.7885701,31.6777958 C40.1018952,29.7942398 37.0036734,29.4722873 34.8673872,30.9589767 C32.7316067,32.4456659 32.3664555,35.1778031 34.0526246,37.0613591 C34.2918441,37.3280178 34.5649489,37.5688133 34.8673872,37.7797324 L34.8673872,40.4133218 C27.5977428,43.2368721 19.292829,43.1276223 12.1218058,40.114111 L12.1218058,37.7797324 C14.2575863,36.2930431 14.6227374,33.5609058 12.9365684,31.6777958 C11.2503992,29.7942398 8.1516717,29.4722873 6.01589122,30.9589767 C3.88011073,32.4456659 3.5149596,35.1778031 5.20112862,37.0613591 C5.43984242,37.3280178 5.71294719,37.5688133 6.01589122,37.7797324 L6.01589122,59.1668327 L1.03982112,59.1668327 C0.465795325,59.1668327 0,59.5775228 0,60.0836393 C0,60.5893099 0.465795325,61 1.03982112,61 L1.03982112,60.9754745 Z M8.08794719,59.1423072 L8.08794719,38.6354482 C8.73024921,38.7496031 9.39278109,38.7496031 10.0355888,38.6354482 L10.0355888,59.1423072 L8.08794719,59.1423072 Z M36.9465236,59.1423072 L36.9465236,38.6354482 C37.5888256,38.7496031 38.2513575,38.7496031 38.8941652,38.6354482 L38.8941652,59.1423072 L36.9465236,59.1423072 Z M65.964917,59.1423072 L65.964917,38.6354482 C66.6072189,38.7496031 67.2697508,38.7496031 67.9120528,38.6354482 L67.9120528,59.1423072 L65.964917,59.1423072 Z M66.9420251,31.8583925 C68.5149063,31.8583925 69.7904067,32.9829966 69.7904067,34.3698004 C69.7904067,35.7570501 68.5149063,36.8816543 66.9420251,36.8816543 C65.3686382,36.8816543 64.0931377,35.7570501 64.0931377,34.3698004 C64.096678,32.986564 65.3656037,31.8650813 66.9349446,31.8583925 L66.9420251,31.8583925 Z M40.9733018,42.3200654 C48.2631761,45.1217658 56.5301587,45.1993554 63.8852748,42.53366 L63.8852748,43.5967276 C56.5776991,46.4849359 48.2009688,46.3979819 40.9733018,43.3586075 L40.9733018,42.3200654 Z M40.9733018,45.375047 C48.2631761,48.1767473 56.5301587,48.254337 63.8852748,45.5890875 L63.8852748,59.1365103 L40.9733018,59.1365103 L40.9733018,45.375047 Z M37.9170571,31.8583925 C39.4899382,31.8583925 40.7654387,32.9829966 40.7654387,34.3698004 C40.7654387,35.7570501 39.4899382,36.8816543 37.9170571,36.8816543 C36.3436701,36.8816543 35.0681698,35.7570501 35.0681698,34.3698004 C35.0717099,32.9843344 36.3451874,31.8615139 37.9170571,31.8583925 Z M12.1147252,42.1425903 C19.3479557,44.9255621 27.5466621,45.0290149 34.8673872,42.4297611 L34.8673872,43.4932747 C27.597237,46.316825 19.2923232,46.2075751 12.1213001,43.1936181 L12.1147252,42.1425903 Z M12.1147252,45.1980176 C19.3479557,47.9809895 27.5466621,48.0839964 34.8673872,45.4851887 L34.8673872,59.1485501 L12.1147252,59.1485501 L12.1147252,45.1980176 Z M9.06505537,31.8583925 C10.6384423,31.8583925 11.913437,32.9829966 11.913437,34.3698004 C11.913437,35.7570501 10.6384423,36.8816543 9.06505537,36.8816543 C7.49166841,36.8816543 6.21667376,35.7570501 6.21667376,34.3698004 C6.22021404,32.9843344 7.49318569,31.8615139 9.06505537,31.8583925 Z" id="Shape"></path>
                <path d="M39.5002661,7 C36.4629566,7 34,9.01514631 34,11.5002177 C34,13.9852891 36.4629566,16 39.5002661,16 C42.5375755,16 45,13.9852891 45,11.5002177 C44.9957416,9.0160174 42.5359786,7.00348415 39.5002661,7 Z M39.5002661,14.2095814 C37.6718122,14.2095814 36.1888217,12.9962255 36.1888217,11.5002177 C36.1888217,10.0037745 37.6718122,8.7904185 39.5002661,8.7904185 C41.3287201,8.7904185 42.8117106,10.0037745 42.8117106,11.5002177 C42.8117106,12.997532 41.3303169,14.211759 39.5002661,14.2156787 L39.5002661,14.2095814 Z" id="Shape"></path>
            </g>
        </g>
    </g>
</svg>