<?xml version="1.0" encoding="UTF-8"?>
<svg width="100px" height="100px" viewBox="0 0 100 100" version="1.1" xmlns="http://www.w3.org/2000/svg" xmlns:xlink="http://www.w3.org/1999/xlink">
    <!-- Generator: Sketch 52.6 (67491) - http://www.bohemiancoding.com/sketch -->
    <title>NATURE</title>
    <desc>Created with Sketch.</desc>
    <g id="Page-1" stroke="none" stroke-width="1" fill="none" fill-rule="evenodd">
        <g id="NATURE">
            <rect id="Rectangle" stroke="#6700F9" stroke-width="2" fill="#FFFFFF" x="1" y="1" width="98" height="98" rx="49"></rect>
            <g id="mountain" transform="translate(8.000000, 14.000000)" fill="#6700F9" fill-rule="nonzero">
                <path d="M67.8564528,25.3346465 L52.6967299,0.938726697 C52.3380853,0.36158987 51.6381741,0.00196975026 50.8704068,0 C50.8682552,0 50.8662692,0 50.8642832,0 C50.0988328,0 49.3992526,0.355821316 49.037629,0.929722125 L35.1469813,22.9712276 C34.9175945,23.3350686 34.9593012,23.779388 35.2538961,24.1076328 L38.6539851,27.8982765 C39.0301729,28.3176926 39.6013229,28.5699613 40.2212963,28.590503 C40.8392837,28.6123109 41.4337696,28.3973268 41.8470301,28.0040802 L47.2227256,22.8900457 L57.6720742,33.3769961 C58.0621642,33.7685543 58.6321558,33.9956384 59.2355789,34 C59.241537,34 59.2474951,34 59.2534532,34 C59.8504217,34 60.4174342,33.7817798 60.8113308,33.399789 L67.0044446,27.3966936 C67.0400277,27.3620823 67.0729627,27.3256419 67.1030842,27.2873725 L67.7910793,26.4122406 C68.0439675,26.0904678 68.0691239,25.6768203 67.8564528,25.3346465 Z M65.0872605,26.0592332 L59.2587493,31.7091804 L48.8122143,21.2249033 C48.4246068,20.8360183 47.8582563,20.6089342 47.2584742,20.6021808 C47.2493716,20.6020401 47.2402689,20.6020401 47.2310008,20.6020401 C46.6413144,20.6020401 46.0794325,20.8153359 45.6858669,21.1898699 L40.3267216,26.2880056 L37.7084677,23.3689764 L50.8619661,2.49736194 L65.3197918,25.76363 L65.0872605,26.0592332 Z" id="Shape"></path>
                <path d="M83.7596861,52.3773153 L74.1132988,36.4883091 C73.7963299,35.9662277 73.0532905,35.7666461 72.4531496,36.0424627 C71.8531727,36.3182793 71.6238133,36.9649921 71.9407822,37.4870735 L81.2749584,52.8618503 L48.5507088,52.8618503 C48.5119901,52.6959606 34.2926866,29.2165729 34.2926866,29.2165729 L36.4061407,25.7838554 L38.6185245,28.3086052 C38.9914388,28.7341794 39.5577828,28.990152 40.1721971,29.0109953 C40.7848068,29.0331234 41.3741196,28.8149828 41.7837838,28.4159624 L47.1127004,23.2268414 L57.4711192,33.8677658 C57.8578147,34.2650731 58.4228462,34.4954913 59.0210184,34.4999169 C59.0269246,34.4999169 59.0328309,34.4999169 59.0387371,34.4999169 C59.6305108,34.4999169 60.1925892,34.2784927 60.5832222,33.8908933 C60.5873238,33.886896 60.5914253,33.8827559 60.5953628,33.8786158 L66.2420686,28.1010289 L68.5374681,31.8819434 C68.854437,32.4040249 69.5976404,32.6037492 70.1976173,32.3277898 C70.7975941,32.0519732 71.0269536,31.4052604 70.7099847,30.883179 L52.538906,0.9525095 C52.1832183,0.366898893 51.4895618,0.00199867101 50.7284755,0 L50.7224051,0 C49.9636157,0 49.2701232,0.361045642 48.9116465,0.943515481 L36.0112421,21.8975824 L35.1422026,23.3090724 C35.1422026,23.3092152 35.1420386,23.3093579 35.1420386,23.3095007 L32.9088188,26.9368031 L26.2690423,16.000218 C26.0022765,15.5609387 25.5453622,15.2458625 25.0123229,15.1149495 C24.8344791,15.0712643 24.6482681,15.0479941 24.4577914,15.0475658 C24.4558227,15.0475658 24.4538539,15.0475658 24.4518852,15.0475658 C24.4264555,15.0475658 24.4013539,15.0489934 24.3760883,15.04985 C24.3552523,15.050421 24.3342523,15.0505638 24.3135804,15.0517059 C24.2947132,15.052848 24.2761742,15.0549894 24.257471,15.0565598 C24.2295804,15.058844 24.2016897,15.0606999 24.1741272,15.0639834 C24.1493538,15.0668387 24.1249085,15.0711215 24.1004631,15.0748334 C24.0799553,15.0779741 24.0591194,15.0804011 24.0387756,15.0841129 C23.4478222,15.1891859 22.933322,15.5166824 22.6411265,15.991224 L18.1441713,23.2957955 L10.5805584,35.5813407 C10.5792459,35.5834822 10.5782616,35.5857663 10.5769491,35.5879078 L0.245928661,52.3683213 C-0.0982746229,52.9275209 -0.0802277396,53.5863685 0.294163059,54.1307209 C0.66871792,54.6750732 1.32759322,55 2.05668731,55 L81.9431852,55 C82.6698184,55 83.3275452,54.6766436 83.7025923,54.1351465 C84.0779675,53.5936494 84.0991315,52.9365149 83.7596861,52.3773153 Z M38.053329,23.1083487 L50.7202723,2.53474313 L65.005693,26.0658108 L59.0392293,32.1703231 L48.6883573,21.5371078 C48.3039587,21.1423703 47.7425366,20.9119521 47.1481379,20.9052422 C47.1389504,20.9050995 47.1299269,20.9050995 47.1209035,20.9050995 C46.5363485,20.9050995 45.9793561,21.1216697 45.5892153,21.50156 L40.276705,26.6745489 L37.6812351,23.7126612 L38.053329,23.1083487 Z M2.72983606,52.8615648 L12.0331685,37.7501843 L15.6199045,40.364446 C16.0067641,40.6464014 16.4746705,40.7847379 16.939952,40.7847379 C17.5041632,40.7847379 18.0644369,40.5813018 18.4718043,40.1841373 L22.5856734,36.171948 L25.235284,38.4595697 C25.7169717,38.8754361 26.4949564,38.8727236 26.9728707,38.4537165 C27.450785,38.0345666 27.4476678,37.3575882 26.9661442,36.9417219 L24.0148225,34.3937019 C23.6164785,34.0499304 23.0681814,33.8620554 22.5054468,33.8759033 C21.9445168,33.8907506 21.4085244,34.1081774 21.035118,34.4726494 L16.8984442,38.5069668 L13.2185206,35.8248931 L24.4497524,17.5820234 L38.9427122,41.454721 L35.4439137,44.2607124 L32.2432169,41.4972642 C31.7616932,41.0813978 30.9837085,41.0841103 30.5056302,41.5032602 C30.0277159,41.9222673 30.0308331,42.5992457 30.5125208,43.015112 L33.9867099,46.0146889 C34.3875148,46.3606018 34.9100541,46.5344862 35.4335778,46.5344862 C35.9318358,46.5344862 36.4309142,46.3768767 36.8258128,46.0600873 L40.1306893,43.409564 L45.869106,52.8615648 L2.72983606,52.8615648 Z" id="Shape"></path>
            </g>
        </g>
    </g>
</svg>