<?xml version="1.0" encoding="UTF-8"?>
<svg width="100px" height="100px" viewBox="0 0 100 100" version="1.1" xmlns="http://www.w3.org/2000/svg" xmlns:xlink="http://www.w3.org/1999/xlink">
    <!-- Generator: Sketch 52.6 (67491) - http://www.bohemiancoding.com/sketch -->
    <title>SUPERMARKET</title>
    <desc>Created with Sketch.</desc>
    <g id="Page-1" stroke="none" stroke-width="1" fill="none" fill-rule="evenodd">
        <g id="SUPERMARKET">
            <rect id="Rectangle" stroke="#6700F9" stroke-width="2" fill="#FFFFFF" x="1" y="1" width="98" height="98" rx="49"></rect>
            <g id="supermarket" transform="translate(18.000000, 22.000000)" fill="#6700F9" fill-rule="nonzero">
                <path d="M20.6201172,37.8186742 L20.6230469,37.8186742 C20.6254882,37.8186742 20.6279297,37.8181818 20.6303711,37.8181818 L54.625,37.8181818 C55.461914,37.8181818 56.1977539,37.2582955 56.4277344,36.4467803 L63.9277344,9.97405306 C64.0893555,9.40333333 63.9760742,8.78977266 63.6220702,8.31606061 C63.2675781,7.84234855 62.7133789,7.56363636 62.125,7.56363636 L16.2958985,7.56363636 L14.9555664,1.48071973 C14.7646485,0.61553024 14.0039062,-2.84217094e-14 13.125,-2.84217094e-14 L1.875,-2.84217094e-14 C0.8393555,-2.84217094e-14 0,0.846477304 0,1.89090909 C0,2.93534088 0.8393555,3.78181818 1.875,3.78181818 L11.6210937,3.78181818 C11.8583985,4.85973482 18.0351562,32.8914773 18.390625,34.5041667 C16.3979492,35.3777273 15,37.3814015 15,39.7090909 C15,42.8369697 17.5234375,45.3818182 20.625,45.3818182 L54.625,45.3818182 C55.6606445,45.3818182 56.5,44.5353409 56.5,43.4909091 C56.5,42.4464773 55.6606445,41.6 54.625,41.6 L20.625,41.6 C19.5913086,41.6 18.75,40.751553 18.75,39.7090909 C18.75,38.6681061 19.5883789,37.8211364 20.6201172,37.8186742 Z M59.6391601,11.3454545 L53.2104493,34.0363636 L22.1289063,34.0363636 L17.1289062,11.3454545 L59.6391601,11.3454545 Z" id="Shape"></path>
                <path d="M18.75,51.0545455 C18.75,54.1824242 21.2734375,56.7272727 24.375,56.7272727 C27.4765625,56.7272727 30,54.1824242 30,51.0545455 C30,47.9266667 27.4765625,45.3818182 24.375,45.3818182 C21.2734375,45.3818182 18.75,47.9266667 18.75,51.0545455 Z M24.375,49.1636364 C25.4086914,49.1636364 26.25,50.0120834 26.25,51.0545455 C26.25,52.0970075 25.4086914,52.9454545 24.375,52.9454545 C23.3413086,52.9454545 22.5,52.0970075 22.5,51.0545455 C22.5,50.0120834 23.3413086,49.1636364 24.375,49.1636364 Z" id="Shape"></path>
                <path d="M45.25,51.0545455 C45.25,54.1824242 47.7734375,56.7272727 50.875,56.7272727 C53.9765625,56.7272727 56.5,54.1824242 56.5,51.0545455 C56.5,47.9266667 53.9765625,45.3818182 50.875,45.3818182 C47.7734375,45.3818182 45.25,47.9266667 45.25,51.0545455 Z M50.875,49.1636364 C51.9086914,49.1636364 52.75,50.0120834 52.75,51.0545455 C52.75,52.0970075 51.9086914,52.9454545 50.875,52.9454545 C49.8413086,52.9454545 49,52.0970075 49,51.0545455 C49,50.0120834 49.8413086,49.1636364 50.875,49.1636364 Z" id="Shape"></path>
            </g>
        </g>
    </g>
</svg>